<svg width="3025" height="1091" xmlns="http://www.w3.org/2000/svg" xmlns:xlink="http://www.w3.org/1999/xlink" xml:space="preserve" overflow="hidden"><g transform="translate(-660 -1232)"><g><rect x="934" y="1313" width="2653" height="831" fill="#FFFFFF" fill-opacity="1"/><path d="M934 2144 3587 2144" stroke="#262626" stroke-width="2.29167" stroke-linecap="butt" stroke-linejoin="round" stroke-miterlimit="10" stroke-opacity="1" fill="none" fill-rule="evenodd"/><path d="M934 1313 3587 1313" stroke="#262626" stroke-width="2.29167" stroke-linecap="butt" stroke-linejoin="round" stroke-miterlimit="10" stroke-opacity="1" fill="none" fill-rule="evenodd"/><path d="M0 0 0.000360892 26.0001" stroke="#262626" stroke-width="2.29167" stroke-linecap="butt" stroke-linejoin="round" stroke-miterlimit="10" stroke-opacity="1" fill="none" fill-rule="evenodd" transform="matrix(1 0 0 -1 1332 2144)"/><path d="M0 0 0.000360892 26.0001" stroke="#262626" stroke-width="2.29167" stroke-linecap="butt" stroke-linejoin="round" stroke-miterlimit="10" stroke-opacity="1" fill="none" fill-rule="evenodd" transform="matrix(1 0 0 -1 1774 2144)"/><path d="M0 0 0.000360892 26.0001" stroke="#262626" stroke-width="2.29167" stroke-linecap="butt" stroke-linejoin="round" stroke-miterlimit="10" stroke-opacity="1" fill="none" fill-rule="evenodd" transform="matrix(1 0 0 -1 2216 2144)"/><path d="M0 0 0.000360892 26.0001" stroke="#262626" stroke-width="2.29167" stroke-linecap="butt" stroke-linejoin="round" stroke-miterlimit="10" stroke-opacity="1" fill="none" fill-rule="evenodd" transform="matrix(1 0 0 -1 2658 2144)"/><path d="M0 0 0.000360892 26.0001" stroke="#262626" stroke-width="2.29167" stroke-linecap="butt" stroke-linejoin="round" stroke-miterlimit="10" stroke-opacity="1" fill="none" fill-rule="evenodd" transform="matrix(1 0 0 -1 3101 2144)"/><path d="M0 0 0.000360892 26.0001" stroke="#262626" stroke-width="2.29167" stroke-linecap="butt" stroke-linejoin="round" stroke-miterlimit="10" stroke-opacity="1" fill="none" fill-rule="evenodd" transform="matrix(1 0 0 -1 3543 2144)"/><path d="M1332 1313 1332 1340" stroke="#262626" stroke-width="2.29167" stroke-linecap="butt" stroke-linejoin="round" stroke-miterlimit="10" stroke-opacity="1" fill="none" fill-rule="evenodd"/><path d="M1774 1313 1774 1340" stroke="#262626" stroke-width="2.29167" stroke-linecap="butt" stroke-linejoin="round" stroke-miterlimit="10" stroke-opacity="1" fill="none" fill-rule="evenodd"/><path d="M2216 1313 2216 1340" stroke="#262626" stroke-width="2.29167" stroke-linecap="butt" stroke-linejoin="round" stroke-miterlimit="10" stroke-opacity="1" fill="none" fill-rule="evenodd"/><path d="M2658 1313 2658 1340" stroke="#262626" stroke-width="2.29167" stroke-linecap="butt" stroke-linejoin="round" stroke-miterlimit="10" stroke-opacity="1" fill="none" fill-rule="evenodd"/><path d="M3101 1313 3101 1340" stroke="#262626" stroke-width="2.29167" stroke-linecap="butt" stroke-linejoin="round" stroke-miterlimit="10" stroke-opacity="1" fill="none" fill-rule="evenodd"/><path d="M3543 1313 3543 1340" stroke="#262626" stroke-width="2.29167" stroke-linecap="butt" stroke-linejoin="round" stroke-miterlimit="10" stroke-opacity="1" fill="none" fill-rule="evenodd"/><text fill="#FFFFFF" fill-opacity="1" font-family="Arial,Arial_MSFontService,sans-serif" font-style="normal" font-variant="normal" font-weight="400" font-stretch="normal" font-size="55" text-anchor="start" direction="ltr" writing-mode="lr-tb" unicode-bidi="normal" text-decoration="none" transform="matrix(1 0 0 1 1301.67 2210)">10</text><text fill="#FFFFFF" fill-opacity="1" font-family="Arial,Arial_MSFontService,sans-serif" font-style="normal" font-variant="normal" font-weight="400" font-stretch="normal" font-size="55" text-anchor="start" direction="ltr" writing-mode="lr-tb" unicode-bidi="normal" text-decoration="none" transform="matrix(1 0 0 1 1742.24 2210)">20</text><text fill="#FFFFFF" fill-opacity="1" font-family="Arial,Arial_MSFontService,sans-serif" font-style="normal" font-variant="normal" font-weight="400" font-stretch="normal" font-size="55" text-anchor="start" direction="ltr" writing-mode="lr-tb" unicode-bidi="normal" text-decoration="none" transform="matrix(1 0 0 1 2186.25 2210)">30</text><text fill="#FFFFFF" fill-opacity="1" font-family="Arial,Arial_MSFontService,sans-serif" font-style="normal" font-variant="normal" font-weight="400" font-stretch="normal" font-size="55" text-anchor="start" direction="ltr" writing-mode="lr-tb" unicode-bidi="normal" text-decoration="none" transform="matrix(1 0 0 1 2626.82 2210)">40</text><text fill="#FFFFFF" fill-opacity="1" font-family="Arial,Arial_MSFontService,sans-serif" font-style="normal" font-variant="normal" font-weight="400" font-stretch="normal" font-size="55" text-anchor="start" direction="ltr" writing-mode="lr-tb" unicode-bidi="normal" text-decoration="none" transform="matrix(1 0 0 1 3070.83 2210)">50</text><text fill="#FFFFFF" fill-opacity="1" font-family="Arial,Arial_MSFontService,sans-serif" font-style="normal" font-variant="normal" font-weight="400" font-stretch="normal" font-size="55" text-anchor="start" direction="ltr" writing-mode="lr-tb" unicode-bidi="normal" text-decoration="none" transform="matrix(1 0 0 1 3510.83 2210)">60</text><path d="M0 0 0.000360892 831" stroke="#262626" stroke-width="2.29167" stroke-linecap="butt" stroke-linejoin="round" stroke-miterlimit="10" stroke-opacity="1" fill="none" fill-rule="evenodd" transform="matrix(1 0 0 -1 934 2144)"/><path d="M0 0 0.000360892 831" stroke="#262626" stroke-width="2.29167" stroke-linecap="butt" stroke-linejoin="round" stroke-miterlimit="10" stroke-opacity="1" fill="none" fill-rule="evenodd" transform="matrix(1 0 0 -1 3587 2144)"/><path d="M934 2144 960 2144" stroke="#262626" stroke-width="2.29167" stroke-linecap="butt" stroke-linejoin="round" stroke-miterlimit="10" stroke-opacity="1" fill="none" fill-rule="evenodd"/><path d="M934 1960 960 1960" stroke="#262626" stroke-width="2.29167" stroke-linecap="butt" stroke-linejoin="round" stroke-miterlimit="10" stroke-opacity="1" fill="none" fill-rule="evenodd"/><path d="M934 1775 960 1775" stroke="#262626" stroke-width="2.29167" stroke-linecap="butt" stroke-linejoin="round" stroke-miterlimit="10" stroke-opacity="1" fill="none" fill-rule="evenodd"/><path d="M934 1590 960 1590" stroke="#262626" stroke-width="2.29167" stroke-linecap="butt" stroke-linejoin="round" stroke-miterlimit="10" stroke-opacity="1" fill="none" fill-rule="evenodd"/><path d="M934 1406 960 1406" stroke="#262626" stroke-width="2.29167" stroke-linecap="butt" stroke-linejoin="round" stroke-miterlimit="10" stroke-opacity="1" fill="none" fill-rule="evenodd"/><path d="M0 0 27.0002 0.000360892" stroke="#262626" stroke-width="2.29167" stroke-linecap="butt" stroke-linejoin="round" stroke-miterlimit="10" stroke-opacity="1" fill="none" fill-rule="evenodd" transform="matrix(-1 0 0 1 3587 2144)"/><path d="M0 0 27.0002 0.000360892" stroke="#262626" stroke-width="2.29167" stroke-linecap="butt" stroke-linejoin="round" stroke-miterlimit="10" stroke-opacity="1" fill="none" fill-rule="evenodd" transform="matrix(-1 0 0 1 3587 1960)"/><path d="M0 0 27.0002 0.000360892" stroke="#262626" stroke-width="2.29167" stroke-linecap="butt" stroke-linejoin="round" stroke-miterlimit="10" stroke-opacity="1" fill="none" fill-rule="evenodd" transform="matrix(-1 0 0 1 3587 1775)"/><path d="M0 0 27.0002 0.000360892" stroke="#262626" stroke-width="2.29167" stroke-linecap="butt" stroke-linejoin="round" stroke-miterlimit="10" stroke-opacity="1" fill="none" fill-rule="evenodd" transform="matrix(-1 0 0 1 3587 1590)"/><path d="M0 0 27.0002 0.000360892" stroke="#262626" stroke-width="2.29167" stroke-linecap="butt" stroke-linejoin="round" stroke-miterlimit="10" stroke-opacity="1" fill="none" fill-rule="evenodd" transform="matrix(-1 0 0 1 3587 1406)"/><text fill="#FFFFFF" fill-opacity="1" font-family="Arial,Arial_MSFontService,sans-serif" font-style="normal" font-variant="normal" font-weight="400" font-stretch="normal" font-size="55" text-anchor="start" direction="ltr" writing-mode="lr-tb" unicode-bidi="normal" text-decoration="none" transform="matrix(1 0 0 1 803.229 2174)">0.08</text><text fill="#FFFFFF" fill-opacity="1" font-family="Arial,Arial_MSFontService,sans-serif" font-style="normal" font-variant="normal" font-weight="400" font-stretch="normal" font-size="55" text-anchor="start" direction="ltr" writing-mode="lr-tb" unicode-bidi="normal" text-decoration="none" transform="matrix(1 0 0 1 834.167 1987)">0.1</text><text fill="#FFFFFF" fill-opacity="1" font-family="Arial,Arial_MSFontService,sans-serif" font-style="normal" font-variant="normal" font-weight="400" font-stretch="normal" font-size="55" text-anchor="start" direction="ltr" writing-mode="lr-tb" unicode-bidi="normal" text-decoration="none" transform="matrix(1 0 0 1 803.229 1804)">0.12</text><text fill="#FFFFFF" fill-opacity="1" font-family="Arial,Arial_MSFontService,sans-serif" font-style="normal" font-variant="normal" font-weight="400" font-stretch="normal" font-size="55" text-anchor="start" direction="ltr" writing-mode="lr-tb" unicode-bidi="normal" text-decoration="none" transform="matrix(1 0 0 1 803.229 1618)">0.14</text><text fill="#FFFFFF" fill-opacity="1" font-family="Arial,Arial_MSFontService,sans-serif" font-style="normal" font-variant="normal" font-weight="400" font-stretch="normal" font-size="55" text-anchor="start" direction="ltr" writing-mode="lr-tb" unicode-bidi="normal" text-decoration="none" transform="matrix(1 0 0 1 803.229 1435)">0.16</text><path d="M934.5 1754.69 978.612 1958.03 1022.72 1638.41 1066.84 1669.34 1111.52 1704.85 1155.63 1820.56 1199.74 1937.99 1243.85 1762.71 1287.97 1642.99 1332.65 1625.81 1376.76 1664.76 1420.87 1672.78 1464.99 1828.58 1509.1 1927.1 1553.78 1679.65 1597.32 1721.47 1642 1689.39 1686.12 1685.38 1730.23 1627.53 1774.34 1747.82 1818.45 1921.95 1863.14 1673.92 1907.25 1651.01 1951.36 1624.09 1995.47 1606.33 2039.58 1691.68 2084.27 1738.08 2128.38 1721.47 2172.49 1616.64 2216.6 1668.77 2260.71 1584.57 2304.83 1622.37 2349.51 1601.18 2393.62 1746.1 2437.73 1731.2 2481.84 1622.94 2525.96 1629.82 2570.64 1514.68 2614.75 1497.5 2658.86 1522.13 2702.98 1682.52 2747.09 1797.08 2791.77 1728.91 2835.88 1555.93 2880 1582.85 2924.11 1973.5 2968.22 1728.34 3012.9 1804.52 3056.44 1593.73 3101.13 1743.23 3145.24 1601.18 3189.35 1636.12 3233.46 1620.08 3277.57 1561.65 3322.26 1687.67 3366.37 1823.43 3410.48 1651.01 3454.59 1613.78 3498.7 1563.37 3543.39 1573.68 3587.5 1634.4" stroke="#B34258" stroke-width="6.875" stroke-linecap="butt" stroke-linejoin="round" stroke-miterlimit="10" stroke-opacity="1" fill="none" fill-rule="evenodd"/><path d="M920.5 1755C920.5 1747.54 926.768 1741.5 934.5 1741.5 942.232 1741.5 948.5 1747.54 948.5 1755 948.5 1762.46 942.232 1768.5 934.5 1768.5 926.768 1768.5 920.5 1762.46 920.5 1755Z" stroke="#B34258" stroke-width="6.875" stroke-linecap="butt" stroke-linejoin="miter" stroke-miterlimit="8" stroke-opacity="1" fill="none" fill-rule="evenodd"/><path d="M964.5 1958C964.5 1950.54 970.768 1944.5 978.5 1944.5 986.232 1944.5 992.5 1950.54 992.5 1958 992.5 1965.46 986.232 1971.5 978.5 1971.5 970.768 1971.5 964.5 1965.46 964.5 1958Z" stroke="#B34258" stroke-width="6.875" stroke-linecap="butt" stroke-linejoin="miter" stroke-miterlimit="8" stroke-opacity="1" fill="none" fill-rule="evenodd"/><path d="M1008.5 1638.5C1008.5 1630.77 1014.77 1624.5 1022.5 1624.5 1030.23 1624.5 1036.5 1630.77 1036.5 1638.5 1036.5 1646.23 1030.23 1652.5 1022.5 1652.5 1014.77 1652.5 1008.5 1646.23 1008.5 1638.5Z" stroke="#B34258" stroke-width="6.875" stroke-linecap="butt" stroke-linejoin="miter" stroke-miterlimit="8" stroke-opacity="1" fill="none" fill-rule="evenodd"/><path d="M1052.5 1669.5C1052.5 1661.77 1058.77 1655.5 1066.5 1655.5 1074.23 1655.5 1080.5 1661.77 1080.5 1669.5 1080.5 1677.23 1074.23 1683.5 1066.5 1683.5 1058.77 1683.5 1052.5 1677.23 1052.5 1669.5Z" stroke="#B34258" stroke-width="6.875" stroke-linecap="butt" stroke-linejoin="miter" stroke-miterlimit="8" stroke-opacity="1" fill="none" fill-rule="evenodd"/><path d="M1097.5 1705C1097.5 1697.54 1103.77 1691.5 1111.5 1691.5 1119.23 1691.5 1125.5 1697.54 1125.5 1705 1125.5 1712.46 1119.23 1718.5 1111.5 1718.5 1103.77 1718.5 1097.5 1712.46 1097.5 1705Z" stroke="#B34258" stroke-width="6.875" stroke-linecap="butt" stroke-linejoin="miter" stroke-miterlimit="8" stroke-opacity="1" fill="none" fill-rule="evenodd"/><path d="M1141.5 1820.5C1141.5 1812.77 1147.77 1806.5 1155.5 1806.5 1163.23 1806.5 1169.5 1812.77 1169.5 1820.5 1169.5 1828.23 1163.23 1834.5 1155.5 1834.5 1147.77 1834.5 1141.5 1828.23 1141.5 1820.5Z" stroke="#B34258" stroke-width="6.875" stroke-linecap="butt" stroke-linejoin="miter" stroke-miterlimit="8" stroke-opacity="1" fill="none" fill-rule="evenodd"/><path d="M1185.5 1938C1185.5 1930.54 1191.77 1924.5 1199.5 1924.5 1207.23 1924.5 1213.5 1930.54 1213.5 1938 1213.5 1945.46 1207.23 1951.5 1199.5 1951.5 1191.77 1951.5 1185.5 1945.46 1185.5 1938Z" stroke="#B34258" stroke-width="6.875" stroke-linecap="butt" stroke-linejoin="miter" stroke-miterlimit="8" stroke-opacity="1" fill="none" fill-rule="evenodd"/><path d="M1229.5 1763C1229.5 1755.54 1235.77 1749.5 1243.5 1749.5 1251.23 1749.5 1257.5 1755.54 1257.5 1763 1257.5 1770.46 1251.23 1776.5 1243.5 1776.5 1235.77 1776.5 1229.5 1770.46 1229.5 1763Z" stroke="#B34258" stroke-width="6.875" stroke-linecap="butt" stroke-linejoin="miter" stroke-miterlimit="8" stroke-opacity="1" fill="none" fill-rule="evenodd"/><path d="M1274.5 1643.5C1274.5 1635.77 1280.54 1629.5 1288 1629.5 1295.46 1629.5 1301.5 1635.77 1301.5 1643.5 1301.5 1651.23 1295.46 1657.5 1288 1657.5 1280.54 1657.5 1274.5 1651.23 1274.5 1643.5Z" stroke="#B34258" stroke-width="6.875" stroke-linecap="butt" stroke-linejoin="miter" stroke-miterlimit="8" stroke-opacity="1" fill="none" fill-rule="evenodd"/><path d="M1318.5 1625.5C1318.5 1617.77 1324.77 1611.5 1332.5 1611.5 1340.23 1611.5 1346.5 1617.77 1346.5 1625.5 1346.5 1633.23 1340.23 1639.5 1332.5 1639.5 1324.77 1639.5 1318.5 1633.23 1318.5 1625.5Z" stroke="#B34258" stroke-width="6.875" stroke-linecap="butt" stroke-linejoin="miter" stroke-miterlimit="8" stroke-opacity="1" fill="none" fill-rule="evenodd"/><path d="M1362.5 1665C1362.5 1657.54 1368.77 1651.5 1376.5 1651.5 1384.23 1651.5 1390.5 1657.54 1390.5 1665 1390.5 1672.46 1384.23 1678.5 1376.5 1678.5 1368.77 1678.5 1362.5 1672.46 1362.5 1665Z" stroke="#B34258" stroke-width="6.875" stroke-linecap="butt" stroke-linejoin="miter" stroke-miterlimit="8" stroke-opacity="1" fill="none" fill-rule="evenodd"/><path d="M1407.5 1673C1407.5 1665.54 1413.54 1659.5 1421 1659.5 1428.46 1659.5 1434.5 1665.54 1434.5 1673 1434.5 1680.46 1428.46 1686.5 1421 1686.5 1413.54 1686.5 1407.5 1680.46 1407.5 1673Z" stroke="#B34258" stroke-width="6.875" stroke-linecap="butt" stroke-linejoin="miter" stroke-miterlimit="8" stroke-opacity="1" fill="none" fill-rule="evenodd"/><path d="M1451.5 1828.5C1451.5 1820.77 1457.54 1814.5 1465 1814.5 1472.46 1814.5 1478.5 1820.77 1478.5 1828.5 1478.5 1836.23 1472.46 1842.5 1465 1842.5 1457.54 1842.5 1451.5 1836.23 1451.5 1828.5Z" stroke="#B34258" stroke-width="6.875" stroke-linecap="butt" stroke-linejoin="miter" stroke-miterlimit="8" stroke-opacity="1" fill="none" fill-rule="evenodd"/><path d="M1495.5 1927C1495.5 1919.54 1501.54 1913.5 1509 1913.5 1516.46 1913.5 1522.5 1919.54 1522.5 1927 1522.5 1934.46 1516.46 1940.5 1509 1940.5 1501.54 1940.5 1495.5 1934.46 1495.5 1927Z" stroke="#B34258" stroke-width="6.875" stroke-linecap="butt" stroke-linejoin="miter" stroke-miterlimit="8" stroke-opacity="1" fill="none" fill-rule="evenodd"/><path d="M1539.5 1679.5C1539.5 1671.77 1545.77 1665.5 1553.5 1665.5 1561.23 1665.5 1567.5 1671.77 1567.5 1679.5 1567.5 1687.23 1561.23 1693.5 1553.5 1693.5 1545.77 1693.5 1539.5 1687.23 1539.5 1679.5Z" stroke="#B34258" stroke-width="6.875" stroke-linecap="butt" stroke-linejoin="miter" stroke-miterlimit="8" stroke-opacity="1" fill="none" fill-rule="evenodd"/><path d="M1583.5 1721.5C1583.5 1713.77 1589.77 1707.5 1597.5 1707.5 1605.23 1707.5 1611.5 1713.77 1611.5 1721.5 1611.5 1729.23 1605.23 1735.5 1597.5 1735.5 1589.77 1735.5 1583.5 1729.23 1583.5 1721.5Z" stroke="#B34258" stroke-width="6.875" stroke-linecap="butt" stroke-linejoin="miter" stroke-miterlimit="8" stroke-opacity="1" fill="none" fill-rule="evenodd"/><path d="M1628.5 1689.5C1628.5 1681.77 1634.54 1675.5 1642 1675.5 1649.46 1675.5 1655.5 1681.77 1655.5 1689.5 1655.5 1697.23 1649.46 1703.5 1642 1703.5 1634.54 1703.5 1628.5 1697.23 1628.5 1689.5Z" stroke="#B34258" stroke-width="6.875" stroke-linecap="butt" stroke-linejoin="miter" stroke-miterlimit="8" stroke-opacity="1" fill="none" fill-rule="evenodd"/><path d="M1672.5 1685.5C1672.5 1677.77 1678.54 1671.5 1686 1671.5 1693.46 1671.5 1699.5 1677.77 1699.5 1685.5 1699.5 1693.23 1693.46 1699.5 1686 1699.5 1678.54 1699.5 1672.5 1693.23 1672.5 1685.5Z" stroke="#B34258" stroke-width="6.875" stroke-linecap="butt" stroke-linejoin="miter" stroke-miterlimit="8" stroke-opacity="1" fill="none" fill-rule="evenodd"/><path d="M1716.5 1627.5C1716.5 1619.77 1722.54 1613.5 1730 1613.5 1737.46 1613.5 1743.5 1619.77 1743.5 1627.5 1743.5 1635.23 1737.46 1641.5 1730 1641.5 1722.54 1641.5 1716.5 1635.23 1716.5 1627.5Z" stroke="#B34258" stroke-width="6.875" stroke-linecap="butt" stroke-linejoin="miter" stroke-miterlimit="8" stroke-opacity="1" fill="none" fill-rule="evenodd"/><path d="M1760.5 1748C1760.5 1740.54 1766.77 1734.5 1774.5 1734.5 1782.23 1734.5 1788.5 1740.54 1788.5 1748 1788.5 1755.46 1782.23 1761.5 1774.5 1761.5 1766.77 1761.5 1760.5 1755.46 1760.5 1748Z" stroke="#B34258" stroke-width="6.875" stroke-linecap="butt" stroke-linejoin="miter" stroke-miterlimit="8" stroke-opacity="1" fill="none" fill-rule="evenodd"/><path d="M1804.5 1921.5C1804.5 1913.77 1810.77 1907.5 1818.5 1907.5 1826.23 1907.5 1832.5 1913.77 1832.5 1921.5 1832.5 1929.23 1826.23 1935.5 1818.5 1935.5 1810.77 1935.5 1804.5 1929.23 1804.5 1921.5Z" stroke="#B34258" stroke-width="6.875" stroke-linecap="butt" stroke-linejoin="miter" stroke-miterlimit="8" stroke-opacity="1" fill="none" fill-rule="evenodd"/><path d="M1849.5 1674C1849.5 1666.54 1855.54 1660.5 1863 1660.5 1870.46 1660.5 1876.5 1666.54 1876.5 1674 1876.5 1681.46 1870.46 1687.5 1863 1687.5 1855.54 1687.5 1849.5 1681.46 1849.5 1674Z" stroke="#B34258" stroke-width="6.875" stroke-linecap="butt" stroke-linejoin="miter" stroke-miterlimit="8" stroke-opacity="1" fill="none" fill-rule="evenodd"/><path d="M1893.5 1651C1893.5 1643.54 1899.54 1637.5 1907 1637.5 1914.46 1637.5 1920.5 1643.54 1920.5 1651 1920.5 1658.46 1914.46 1664.5 1907 1664.5 1899.54 1664.5 1893.5 1658.46 1893.5 1651Z" stroke="#B34258" stroke-width="6.875" stroke-linecap="butt" stroke-linejoin="miter" stroke-miterlimit="8" stroke-opacity="1" fill="none" fill-rule="evenodd"/><path d="M1937.5 1623.5C1937.5 1615.77 1943.77 1609.5 1951.5 1609.5 1959.23 1609.5 1965.5 1615.77 1965.5 1623.5 1965.5 1631.23 1959.23 1637.5 1951.5 1637.5 1943.77 1637.5 1937.5 1631.23 1937.5 1623.5Z" stroke="#B34258" stroke-width="6.875" stroke-linecap="butt" stroke-linejoin="miter" stroke-miterlimit="8" stroke-opacity="1" fill="none" fill-rule="evenodd"/><path d="M1981.5 1606.5C1981.5 1598.77 1987.77 1592.5 1995.5 1592.5 2003.23 1592.5 2009.5 1598.77 2009.5 1606.5 2009.5 1614.23 2003.23 1620.5 1995.5 1620.5 1987.77 1620.5 1981.5 1614.23 1981.5 1606.5Z" stroke="#B34258" stroke-width="6.875" stroke-linecap="butt" stroke-linejoin="miter" stroke-miterlimit="8" stroke-opacity="1" fill="none" fill-rule="evenodd"/><path d="M2025.5 1692C2025.5 1684.54 2031.77 1678.5 2039.5 1678.5 2047.23 1678.5 2053.5 1684.54 2053.5 1692 2053.5 1699.46 2047.23 1705.5 2039.5 1705.5 2031.77 1705.5 2025.5 1699.46 2025.5 1692Z" stroke="#B34258" stroke-width="6.875" stroke-linecap="butt" stroke-linejoin="miter" stroke-miterlimit="8" stroke-opacity="1" fill="none" fill-rule="evenodd"/><path d="M2070.5 1738C2070.5 1730.54 2076.54 1724.5 2084 1724.5 2091.46 1724.5 2097.5 1730.54 2097.5 1738 2097.5 1745.46 2091.46 1751.5 2084 1751.5 2076.54 1751.5 2070.5 1745.46 2070.5 1738Z" stroke="#B34258" stroke-width="6.875" stroke-linecap="butt" stroke-linejoin="miter" stroke-miterlimit="8" stroke-opacity="1" fill="none" fill-rule="evenodd"/><path d="M2114.5 1721.5C2114.5 1713.77 2120.77 1707.5 2128.5 1707.5 2136.23 1707.5 2142.5 1713.77 2142.5 1721.5 2142.5 1729.23 2136.23 1735.5 2128.5 1735.5 2120.77 1735.5 2114.5 1729.23 2114.5 1721.5Z" stroke="#B34258" stroke-width="6.875" stroke-linecap="butt" stroke-linejoin="miter" stroke-miterlimit="8" stroke-opacity="1" fill="none" fill-rule="evenodd"/><path d="M2158.5 1616.5C2158.5 1608.77 2164.77 1602.5 2172.5 1602.5 2180.23 1602.5 2186.5 1608.77 2186.5 1616.5 2186.5 1624.23 2180.23 1630.5 2172.5 1630.5 2164.77 1630.5 2158.5 1624.23 2158.5 1616.5Z" stroke="#B34258" stroke-width="6.875" stroke-linecap="butt" stroke-linejoin="miter" stroke-miterlimit="8" stroke-opacity="1" fill="none" fill-rule="evenodd"/><path d="M2202.5 1669C2202.5 1661.54 2208.77 1655.5 2216.5 1655.5 2224.23 1655.5 2230.5 1661.54 2230.5 1669 2230.5 1676.46 2224.23 1682.5 2216.5 1682.5 2208.77 1682.5 2202.5 1676.46 2202.5 1669Z" stroke="#B34258" stroke-width="6.875" stroke-linecap="butt" stroke-linejoin="miter" stroke-miterlimit="8" stroke-opacity="1" fill="none" fill-rule="evenodd"/><path d="M2246.5 1584.5C2246.5 1576.77 2252.77 1570.5 2260.5 1570.5 2268.23 1570.5 2274.5 1576.77 2274.5 1584.5 2274.5 1592.23 2268.23 1598.5 2260.5 1598.5 2252.77 1598.5 2246.5 1592.23 2246.5 1584.5Z" stroke="#B34258" stroke-width="6.875" stroke-linecap="butt" stroke-linejoin="miter" stroke-miterlimit="8" stroke-opacity="1" fill="none" fill-rule="evenodd"/><path d="M2291.5 1622.5C2291.5 1614.77 2297.77 1608.5 2305.5 1608.5 2313.23 1608.5 2319.5 1614.77 2319.5 1622.5 2319.5 1630.23 2313.23 1636.5 2305.5 1636.5 2297.77 1636.5 2291.5 1630.23 2291.5 1622.5Z" stroke="#B34258" stroke-width="6.875" stroke-linecap="butt" stroke-linejoin="miter" stroke-miterlimit="8" stroke-opacity="1" fill="none" fill-rule="evenodd"/><path d="M2335.5 1601C2335.5 1593.54 2341.77 1587.5 2349.5 1587.5 2357.23 1587.5 2363.5 1593.54 2363.5 1601 2363.5 1608.46 2357.23 1614.5 2349.5 1614.5 2341.77 1614.5 2335.5 1608.46 2335.5 1601Z" stroke="#B34258" stroke-width="6.875" stroke-linecap="butt" stroke-linejoin="miter" stroke-miterlimit="8" stroke-opacity="1" fill="none" fill-rule="evenodd"/><path d="M2379.5 1745.5C2379.5 1737.77 2385.77 1731.5 2393.5 1731.5 2401.23 1731.5 2407.5 1737.77 2407.5 1745.5 2407.5 1753.23 2401.23 1759.5 2393.5 1759.5 2385.77 1759.5 2379.5 1753.23 2379.5 1745.5Z" stroke="#B34258" stroke-width="6.875" stroke-linecap="butt" stroke-linejoin="miter" stroke-miterlimit="8" stroke-opacity="1" fill="none" fill-rule="evenodd"/><path d="M2423.5 1731.5C2423.5 1723.77 2429.77 1717.5 2437.5 1717.5 2445.23 1717.5 2451.5 1723.77 2451.5 1731.5 2451.5 1739.23 2445.23 1745.5 2437.5 1745.5 2429.77 1745.5 2423.5 1739.23 2423.5 1731.5Z" stroke="#B34258" stroke-width="6.875" stroke-linecap="butt" stroke-linejoin="miter" stroke-miterlimit="8" stroke-opacity="1" fill="none" fill-rule="evenodd"/><path d="M2468.5 1623.5C2468.5 1615.77 2474.54 1609.5 2482 1609.5 2489.46 1609.5 2495.5 1615.77 2495.5 1623.5 2495.5 1631.23 2489.46 1637.5 2482 1637.5 2474.54 1637.5 2468.5 1631.23 2468.5 1623.5Z" stroke="#B34258" stroke-width="6.875" stroke-linecap="butt" stroke-linejoin="miter" stroke-miterlimit="8" stroke-opacity="1" fill="none" fill-rule="evenodd"/><path d="M2512.5 1630C2512.5 1622.54 2518.54 1616.5 2526 1616.5 2533.46 1616.5 2539.5 1622.54 2539.5 1630 2539.5 1637.46 2533.46 1643.5 2526 1643.5 2518.54 1643.5 2512.5 1637.46 2512.5 1630Z" stroke="#B34258" stroke-width="6.875" stroke-linecap="butt" stroke-linejoin="miter" stroke-miterlimit="8" stroke-opacity="1" fill="none" fill-rule="evenodd"/><path d="M2556.5 1514.5C2556.5 1506.77 2562.77 1500.5 2570.5 1500.5 2578.23 1500.5 2584.5 1506.77 2584.5 1514.5 2584.5 1522.23 2578.23 1528.5 2570.5 1528.5 2562.77 1528.5 2556.5 1522.23 2556.5 1514.5Z" stroke="#B34258" stroke-width="6.875" stroke-linecap="butt" stroke-linejoin="miter" stroke-miterlimit="8" stroke-opacity="1" fill="none" fill-rule="evenodd"/><path d="M2600.5 1497.5C2600.5 1489.77 2606.77 1483.5 2614.5 1483.5 2622.23 1483.5 2628.5 1489.77 2628.5 1497.5 2628.5 1505.23 2622.23 1511.5 2614.5 1511.5 2606.77 1511.5 2600.5 1505.23 2600.5 1497.5Z" stroke="#B34258" stroke-width="6.875" stroke-linecap="butt" stroke-linejoin="miter" stroke-miterlimit="8" stroke-opacity="1" fill="none" fill-rule="evenodd"/><path d="M2645.5 1522C2645.5 1514.54 2651.54 1508.5 2659 1508.5 2666.46 1508.5 2672.5 1514.54 2672.5 1522 2672.5 1529.46 2666.46 1535.5 2659 1535.5 2651.54 1535.5 2645.5 1529.46 2645.5 1522Z" stroke="#B34258" stroke-width="6.875" stroke-linecap="butt" stroke-linejoin="miter" stroke-miterlimit="8" stroke-opacity="1" fill="none" fill-rule="evenodd"/><path d="M2689.5 1682.5C2689.5 1674.77 2695.54 1668.5 2703 1668.5 2710.46 1668.5 2716.5 1674.77 2716.5 1682.5 2716.5 1690.23 2710.46 1696.5 2703 1696.5 2695.54 1696.5 2689.5 1690.23 2689.5 1682.5Z" stroke="#B34258" stroke-width="6.875" stroke-linecap="butt" stroke-linejoin="miter" stroke-miterlimit="8" stroke-opacity="1" fill="none" fill-rule="evenodd"/><path d="M2733.5 1797C2733.5 1789.54 2739.54 1783.5 2747 1783.5 2754.46 1783.5 2760.5 1789.54 2760.5 1797 2760.5 1804.46 2754.46 1810.5 2747 1810.5 2739.54 1810.5 2733.5 1804.46 2733.5 1797Z" stroke="#B34258" stroke-width="6.875" stroke-linecap="butt" stroke-linejoin="miter" stroke-miterlimit="8" stroke-opacity="1" fill="none" fill-rule="evenodd"/><path d="M2778.5 1729C2778.5 1721.54 2784.54 1715.5 2792 1715.5 2799.46 1715.5 2805.5 1721.54 2805.5 1729 2805.5 1736.46 2799.46 1742.5 2792 1742.5 2784.54 1742.5 2778.5 1736.46 2778.5 1729Z" stroke="#B34258" stroke-width="6.875" stroke-linecap="butt" stroke-linejoin="miter" stroke-miterlimit="8" stroke-opacity="1" fill="none" fill-rule="evenodd"/><path d="M2822.5 1556C2822.5 1548.54 2828.54 1542.5 2836 1542.5 2843.46 1542.5 2849.5 1548.54 2849.5 1556 2849.5 1563.46 2843.46 1569.5 2836 1569.5 2828.54 1569.5 2822.5 1563.46 2822.5 1556Z" stroke="#B34258" stroke-width="6.875" stroke-linecap="butt" stroke-linejoin="miter" stroke-miterlimit="8" stroke-opacity="1" fill="none" fill-rule="evenodd"/><path d="M2866.5 1583C2866.5 1575.54 2872.54 1569.5 2880 1569.5 2887.46 1569.5 2893.5 1575.54 2893.5 1583 2893.5 1590.46 2887.46 1596.5 2880 1596.5 2872.54 1596.5 2866.5 1590.46 2866.5 1583Z" stroke="#B34258" stroke-width="6.875" stroke-linecap="butt" stroke-linejoin="miter" stroke-miterlimit="8" stroke-opacity="1" fill="none" fill-rule="evenodd"/><path d="M2910.5 1973.5C2910.5 1965.77 2916.54 1959.5 2924 1959.5 2931.46 1959.5 2937.5 1965.77 2937.5 1973.5 2937.5 1981.23 2931.46 1987.5 2924 1987.5 2916.54 1987.5 2910.5 1981.23 2910.5 1973.5Z" stroke="#B34258" stroke-width="6.875" stroke-linecap="butt" stroke-linejoin="miter" stroke-miterlimit="8" stroke-opacity="1" fill="none" fill-rule="evenodd"/><path d="M2954.5 1728.5C2954.5 1720.77 2960.54 1714.5 2968 1714.5 2975.46 1714.5 2981.5 1720.77 2981.5 1728.5 2981.5 1736.23 2975.46 1742.5 2968 1742.5 2960.54 1742.5 2954.5 1736.23 2954.5 1728.5Z" stroke="#B34258" stroke-width="6.875" stroke-linecap="butt" stroke-linejoin="miter" stroke-miterlimit="8" stroke-opacity="1" fill="none" fill-rule="evenodd"/><path d="M2998.5 1804.5C2998.5 1796.77 3004.77 1790.5 3012.5 1790.5 3020.23 1790.5 3026.5 1796.77 3026.5 1804.5 3026.5 1812.23 3020.23 1818.5 3012.5 1818.5 3004.77 1818.5 2998.5 1812.23 2998.5 1804.5Z" stroke="#B34258" stroke-width="6.875" stroke-linecap="butt" stroke-linejoin="miter" stroke-miterlimit="8" stroke-opacity="1" fill="none" fill-rule="evenodd"/><path d="M3042.5 1594C3042.5 1586.54 3048.77 1580.5 3056.5 1580.5 3064.23 1580.5 3070.5 1586.54 3070.5 1594 3070.5 1601.46 3064.23 1607.5 3056.5 1607.5 3048.77 1607.5 3042.5 1601.46 3042.5 1594Z" stroke="#B34258" stroke-width="6.875" stroke-linecap="butt" stroke-linejoin="miter" stroke-miterlimit="8" stroke-opacity="1" fill="none" fill-rule="evenodd"/><path d="M3087.5 1743.5C3087.5 1735.77 3093.54 1729.5 3101 1729.5 3108.46 1729.5 3114.5 1735.77 3114.5 1743.5 3114.5 1751.23 3108.46 1757.5 3101 1757.5 3093.54 1757.5 3087.5 1751.23 3087.5 1743.5Z" stroke="#B34258" stroke-width="6.875" stroke-linecap="butt" stroke-linejoin="miter" stroke-miterlimit="8" stroke-opacity="1" fill="none" fill-rule="evenodd"/><path d="M3131.5 1601.5C3131.5 1593.77 3137.54 1587.5 3145 1587.5 3152.46 1587.5 3158.5 1593.77 3158.5 1601.5 3158.5 1609.23 3152.46 1615.5 3145 1615.5 3137.54 1615.5 3131.5 1609.23 3131.5 1601.5Z" stroke="#B34258" stroke-width="6.875" stroke-linecap="butt" stroke-linejoin="miter" stroke-miterlimit="8" stroke-opacity="1" fill="none" fill-rule="evenodd"/><path d="M3175.5 1636C3175.5 1628.54 3181.77 1622.5 3189.5 1622.5 3197.23 1622.5 3203.5 1628.54 3203.5 1636 3203.5 1643.46 3197.23 1649.5 3189.5 1649.5 3181.77 1649.5 3175.5 1643.46 3175.5 1636Z" stroke="#B34258" stroke-width="6.875" stroke-linecap="butt" stroke-linejoin="miter" stroke-miterlimit="8" stroke-opacity="1" fill="none" fill-rule="evenodd"/><path d="M3219.5 1620C3219.5 1612.54 3225.77 1606.5 3233.5 1606.5 3241.23 1606.5 3247.5 1612.54 3247.5 1620 3247.5 1627.46 3241.23 1633.5 3233.5 1633.5 3225.77 1633.5 3219.5 1627.46 3219.5 1620Z" stroke="#B34258" stroke-width="6.875" stroke-linecap="butt" stroke-linejoin="miter" stroke-miterlimit="8" stroke-opacity="1" fill="none" fill-rule="evenodd"/><path d="M3263.5 1561.5C3263.5 1553.77 3269.77 1547.5 3277.5 1547.5 3285.23 1547.5 3291.5 1553.77 3291.5 1561.5 3291.5 1569.23 3285.23 1575.5 3277.5 1575.5 3269.77 1575.5 3263.5 1569.23 3263.5 1561.5Z" stroke="#B34258" stroke-width="6.875" stroke-linecap="butt" stroke-linejoin="miter" stroke-miterlimit="8" stroke-opacity="1" fill="none" fill-rule="evenodd"/><path d="M3308.5 1687.5C3308.5 1679.77 3314.77 1673.5 3322.5 1673.5 3330.23 1673.5 3336.5 1679.77 3336.5 1687.5 3336.5 1695.23 3330.23 1701.5 3322.5 1701.5 3314.77 1701.5 3308.5 1695.23 3308.5 1687.5Z" stroke="#B34258" stroke-width="6.875" stroke-linecap="butt" stroke-linejoin="miter" stroke-miterlimit="8" stroke-opacity="1" fill="none" fill-rule="evenodd"/><path d="M3352.5 1823.5C3352.5 1815.77 3358.77 1809.5 3366.5 1809.5 3374.23 1809.5 3380.5 1815.77 3380.5 1823.5 3380.5 1831.23 3374.23 1837.5 3366.5 1837.5 3358.77 1837.5 3352.5 1831.23 3352.5 1823.5Z" stroke="#B34258" stroke-width="6.875" stroke-linecap="butt" stroke-linejoin="miter" stroke-miterlimit="8" stroke-opacity="1" fill="none" fill-rule="evenodd"/><path d="M3396.5 1651C3396.5 1643.54 3402.77 1637.5 3410.5 1637.5 3418.23 1637.5 3424.5 1643.54 3424.5 1651 3424.5 1658.46 3418.23 1664.5 3410.5 1664.5 3402.77 1664.5 3396.5 1658.46 3396.5 1651Z" stroke="#B34258" stroke-width="6.875" stroke-linecap="butt" stroke-linejoin="miter" stroke-miterlimit="8" stroke-opacity="1" fill="none" fill-rule="evenodd"/><path d="M3440.5 1613.5C3440.5 1605.77 3446.77 1599.5 3454.5 1599.5 3462.23 1599.5 3468.5 1605.77 3468.5 1613.5 3468.5 1621.23 3462.23 1627.5 3454.5 1627.5 3446.77 1627.5 3440.5 1621.23 3440.5 1613.5Z" stroke="#B34258" stroke-width="6.875" stroke-linecap="butt" stroke-linejoin="miter" stroke-miterlimit="8" stroke-opacity="1" fill="none" fill-rule="evenodd"/><path d="M3484.5 1563.5C3484.5 1555.77 3490.77 1549.5 3498.5 1549.5 3506.23 1549.5 3512.5 1555.77 3512.5 1563.5 3512.5 1571.23 3506.23 1577.5 3498.5 1577.5 3490.77 1577.5 3484.5 1571.23 3484.5 1563.5Z" stroke="#B34258" stroke-width="6.875" stroke-linecap="butt" stroke-linejoin="miter" stroke-miterlimit="8" stroke-opacity="1" fill="none" fill-rule="evenodd"/><path d="M3529.5 1573.5C3529.5 1565.77 3535.77 1559.5 3543.5 1559.5 3551.23 1559.5 3557.5 1565.77 3557.5 1573.5 3557.5 1581.23 3551.23 1587.5 3543.5 1587.5 3535.77 1587.5 3529.5 1581.23 3529.5 1573.5Z" stroke="#B34258" stroke-width="6.875" stroke-linecap="butt" stroke-linejoin="miter" stroke-miterlimit="8" stroke-opacity="1" fill="none" fill-rule="evenodd"/><path d="M3573.5 1634.5C3573.5 1626.77 3579.77 1620.5 3587.5 1620.5 3595.23 1620.5 3601.5 1626.77 3601.5 1634.5 3601.5 1642.23 3595.23 1648.5 3587.5 1648.5 3579.77 1648.5 3573.5 1642.23 3573.5 1634.5Z" stroke="#B34258" stroke-width="6.875" stroke-linecap="butt" stroke-linejoin="miter" stroke-miterlimit="8" stroke-opacity="1" fill="none" fill-rule="evenodd"/><path d="M934.5 1617.28 978.612 1934.5 1022.72 1468.14 1066.84 1555.9 1111.52 1617.85 1155.63 1715.37 1199.74 1800.84 1243.85 1631.62 1287.97 1528.94 1332.65 1535.25 1376.76 1576.55 1420.87 1556.48 1464.99 1694.72 1509.1 1803.71 1553.78 1606.38 1597.32 1570.24 1642 1599.5 1686.12 1564.51 1730.23 1538.69 1774.34 1652.27 1818.45 1800.27 1863.14 1548.44 1907.25 1561.06 1951.36 1544.43 1995.47 1487.64 2039.58 1595.48 2084.27 1608.1 2128.38 1562.79 2172.49 1525.5 2216.6 1546.15 2260.71 1504.27 2304.83 1499.11 2349.51 1505.42 2393.62 1658.01 2437.73 1645.96 2481.84 1522.06 2525.96 1503.7 2570.64 1451.5 2614.75 1457.24 2658.86 1473.3 2702.98 1589.17 2747.09 1682.1 2791.77 1632.19 2835.88 1492.8 2880 1543.28 2924.11 1845.01 2968.22 1772.16 3012.9 1699.31 3056.44 1496.82 3101.13 1619.57 3145.24 1502.55 3189.35 1531.24 3233.46 1486.49 3277.57 1480.18 3322.26 1559.34 3366.37 1699.88 3410.48 1535.82 3454.59 1557.05 3498.7 1468.14 3543.39 1459.53 3587.5 1589.17" stroke="#76AC2F" stroke-width="6.875" stroke-linecap="butt" stroke-linejoin="round" stroke-miterlimit="10" stroke-opacity="1" fill="none" fill-rule="evenodd"/><path d="M920.5 1617.5C920.5 1609.77 926.768 1603.5 934.5 1603.5 942.232 1603.5 948.5 1609.77 948.5 1617.5 948.5 1625.23 942.232 1631.5 934.5 1631.5 926.768 1631.5 920.5 1625.23 920.5 1617.5Z" stroke="#76AC2F" stroke-width="6.875" stroke-linecap="butt" stroke-linejoin="miter" stroke-miterlimit="8" stroke-opacity="1" fill="none" fill-rule="evenodd"/><path d="M964.5 1934C964.5 1926.54 970.768 1920.5 978.5 1920.5 986.232 1920.5 992.5 1926.54 992.5 1934 992.5 1941.46 986.232 1947.5 978.5 1947.5 970.768 1947.5 964.5 1941.46 964.5 1934Z" stroke="#76AC2F" stroke-width="6.875" stroke-linecap="butt" stroke-linejoin="miter" stroke-miterlimit="8" stroke-opacity="1" fill="none" fill-rule="evenodd"/><path d="M1008.5 1468.5C1008.5 1460.77 1014.77 1454.5 1022.5 1454.5 1030.23 1454.5 1036.5 1460.77 1036.5 1468.5 1036.5 1476.23 1030.23 1482.5 1022.5 1482.5 1014.77 1482.5 1008.5 1476.23 1008.5 1468.5Z" stroke="#76AC2F" stroke-width="6.875" stroke-linecap="butt" stroke-linejoin="miter" stroke-miterlimit="8" stroke-opacity="1" fill="none" fill-rule="evenodd"/><path d="M1052.5 1556C1052.5 1548.54 1058.77 1542.5 1066.5 1542.5 1074.23 1542.5 1080.5 1548.54 1080.5 1556 1080.5 1563.46 1074.23 1569.5 1066.5 1569.5 1058.77 1569.5 1052.5 1563.46 1052.5 1556Z" stroke="#76AC2F" stroke-width="6.875" stroke-linecap="butt" stroke-linejoin="miter" stroke-miterlimit="8" stroke-opacity="1" fill="none" fill-rule="evenodd"/><path d="M1097.5 1618C1097.5 1610.54 1103.77 1604.5 1111.5 1604.5 1119.23 1604.5 1125.5 1610.54 1125.5 1618 1125.5 1625.46 1119.23 1631.5 1111.5 1631.5 1103.77 1631.5 1097.5 1625.46 1097.5 1618Z" stroke="#76AC2F" stroke-width="6.875" stroke-linecap="butt" stroke-linejoin="miter" stroke-miterlimit="8" stroke-opacity="1" fill="none" fill-rule="evenodd"/><path d="M1141.5 1715C1141.5 1707.54 1147.77 1701.5 1155.5 1701.5 1163.23 1701.5 1169.5 1707.54 1169.5 1715 1169.5 1722.46 1163.23 1728.5 1155.5 1728.5 1147.77 1728.5 1141.5 1722.46 1141.5 1715Z" stroke="#76AC2F" stroke-width="6.875" stroke-linecap="butt" stroke-linejoin="miter" stroke-miterlimit="8" stroke-opacity="1" fill="none" fill-rule="evenodd"/><path d="M1185.5 1800.5C1185.5 1792.77 1191.77 1786.5 1199.5 1786.5 1207.23 1786.5 1213.5 1792.77 1213.5 1800.5 1213.5 1808.23 1207.23 1814.5 1199.5 1814.5 1191.77 1814.5 1185.5 1808.23 1185.5 1800.5Z" stroke="#76AC2F" stroke-width="6.875" stroke-linecap="butt" stroke-linejoin="miter" stroke-miterlimit="8" stroke-opacity="1" fill="none" fill-rule="evenodd"/><path d="M1229.5 1631.5C1229.5 1623.77 1235.77 1617.5 1243.5 1617.5 1251.23 1617.5 1257.5 1623.77 1257.5 1631.5 1257.5 1639.23 1251.23 1645.5 1243.5 1645.5 1235.77 1645.5 1229.5 1639.23 1229.5 1631.5Z" stroke="#76AC2F" stroke-width="6.875" stroke-linecap="butt" stroke-linejoin="miter" stroke-miterlimit="8" stroke-opacity="1" fill="none" fill-rule="evenodd"/><path d="M1274.5 1529C1274.5 1521.54 1280.54 1515.5 1288 1515.5 1295.46 1515.5 1301.5 1521.54 1301.5 1529 1301.5 1536.46 1295.46 1542.5 1288 1542.5 1280.54 1542.5 1274.5 1536.46 1274.5 1529Z" stroke="#76AC2F" stroke-width="6.875" stroke-linecap="butt" stroke-linejoin="miter" stroke-miterlimit="8" stroke-opacity="1" fill="none" fill-rule="evenodd"/><path d="M1318.5 1535.5C1318.5 1527.77 1324.77 1521.5 1332.5 1521.5 1340.23 1521.5 1346.5 1527.77 1346.5 1535.5 1346.5 1543.23 1340.23 1549.5 1332.5 1549.5 1324.77 1549.5 1318.5 1543.23 1318.5 1535.5Z" stroke="#76AC2F" stroke-width="6.875" stroke-linecap="butt" stroke-linejoin="miter" stroke-miterlimit="8" stroke-opacity="1" fill="none" fill-rule="evenodd"/><path d="M1362.5 1576.5C1362.5 1568.77 1368.77 1562.5 1376.5 1562.5 1384.23 1562.5 1390.5 1568.77 1390.5 1576.5 1390.5 1584.23 1384.23 1590.5 1376.5 1590.5 1368.77 1590.5 1362.5 1584.23 1362.5 1576.5Z" stroke="#76AC2F" stroke-width="6.875" stroke-linecap="butt" stroke-linejoin="miter" stroke-miterlimit="8" stroke-opacity="1" fill="none" fill-rule="evenodd"/><path d="M1407.5 1556.5C1407.5 1548.77 1413.54 1542.5 1421 1542.5 1428.46 1542.5 1434.5 1548.77 1434.5 1556.5 1434.5 1564.23 1428.46 1570.5 1421 1570.5 1413.54 1570.5 1407.5 1564.23 1407.5 1556.5Z" stroke="#76AC2F" stroke-width="6.875" stroke-linecap="butt" stroke-linejoin="miter" stroke-miterlimit="8" stroke-opacity="1" fill="none" fill-rule="evenodd"/><path d="M1451.5 1694.5C1451.5 1686.77 1457.54 1680.5 1465 1680.5 1472.46 1680.5 1478.5 1686.77 1478.5 1694.5 1478.5 1702.23 1472.46 1708.5 1465 1708.5 1457.54 1708.5 1451.5 1702.23 1451.5 1694.5Z" stroke="#76AC2F" stroke-width="6.875" stroke-linecap="butt" stroke-linejoin="miter" stroke-miterlimit="8" stroke-opacity="1" fill="none" fill-rule="evenodd"/><path d="M1495.5 1803.5C1495.5 1795.77 1501.54 1789.5 1509 1789.5 1516.46 1789.5 1522.5 1795.77 1522.5 1803.5 1522.5 1811.23 1516.46 1817.5 1509 1817.5 1501.54 1817.5 1495.5 1811.23 1495.5 1803.5Z" stroke="#76AC2F" stroke-width="6.875" stroke-linecap="butt" stroke-linejoin="miter" stroke-miterlimit="8" stroke-opacity="1" fill="none" fill-rule="evenodd"/><path d="M1539.5 1606.5C1539.5 1598.77 1545.77 1592.5 1553.5 1592.5 1561.23 1592.5 1567.5 1598.77 1567.5 1606.5 1567.5 1614.23 1561.23 1620.5 1553.5 1620.5 1545.77 1620.5 1539.5 1614.23 1539.5 1606.5Z" stroke="#76AC2F" stroke-width="6.875" stroke-linecap="butt" stroke-linejoin="miter" stroke-miterlimit="8" stroke-opacity="1" fill="none" fill-rule="evenodd"/><path d="M1583.5 1570.5C1583.5 1562.77 1589.77 1556.5 1597.5 1556.5 1605.23 1556.5 1611.5 1562.77 1611.5 1570.5 1611.5 1578.23 1605.23 1584.5 1597.5 1584.5 1589.77 1584.5 1583.5 1578.23 1583.5 1570.5Z" stroke="#76AC2F" stroke-width="6.875" stroke-linecap="butt" stroke-linejoin="miter" stroke-miterlimit="8" stroke-opacity="1" fill="none" fill-rule="evenodd"/><path d="M1628.5 1599.5C1628.5 1591.77 1634.54 1585.5 1642 1585.5 1649.46 1585.5 1655.5 1591.77 1655.5 1599.5 1655.5 1607.23 1649.46 1613.5 1642 1613.5 1634.54 1613.5 1628.5 1607.23 1628.5 1599.5Z" stroke="#76AC2F" stroke-width="6.875" stroke-linecap="butt" stroke-linejoin="miter" stroke-miterlimit="8" stroke-opacity="1" fill="none" fill-rule="evenodd"/><path d="M1672.5 1564.5C1672.5 1556.77 1678.54 1550.5 1686 1550.5 1693.46 1550.5 1699.5 1556.77 1699.5 1564.5 1699.5 1572.23 1693.46 1578.5 1686 1578.5 1678.54 1578.5 1672.5 1572.23 1672.5 1564.5Z" stroke="#76AC2F" stroke-width="6.875" stroke-linecap="butt" stroke-linejoin="miter" stroke-miterlimit="8" stroke-opacity="1" fill="none" fill-rule="evenodd"/><path d="M1716.5 1539C1716.5 1531.54 1722.54 1525.5 1730 1525.5 1737.46 1525.5 1743.5 1531.54 1743.5 1539 1743.5 1546.46 1737.46 1552.5 1730 1552.5 1722.54 1552.5 1716.5 1546.46 1716.5 1539Z" stroke="#76AC2F" stroke-width="6.875" stroke-linecap="butt" stroke-linejoin="miter" stroke-miterlimit="8" stroke-opacity="1" fill="none" fill-rule="evenodd"/><path d="M1760.5 1652C1760.5 1644.54 1766.77 1638.5 1774.5 1638.5 1782.23 1638.5 1788.5 1644.54 1788.5 1652 1788.5 1659.46 1782.23 1665.5 1774.5 1665.5 1766.77 1665.5 1760.5 1659.46 1760.5 1652Z" stroke="#76AC2F" stroke-width="6.875" stroke-linecap="butt" stroke-linejoin="miter" stroke-miterlimit="8" stroke-opacity="1" fill="none" fill-rule="evenodd"/><path d="M1804.5 1800C1804.5 1792.54 1810.77 1786.5 1818.5 1786.5 1826.23 1786.5 1832.5 1792.54 1832.5 1800 1832.5 1807.46 1826.23 1813.5 1818.5 1813.5 1810.77 1813.5 1804.5 1807.46 1804.5 1800Z" stroke="#76AC2F" stroke-width="6.875" stroke-linecap="butt" stroke-linejoin="miter" stroke-miterlimit="8" stroke-opacity="1" fill="none" fill-rule="evenodd"/><path d="M1849.5 1548.5C1849.5 1540.77 1855.54 1534.5 1863 1534.5 1870.46 1534.5 1876.5 1540.77 1876.5 1548.5 1876.5 1556.23 1870.46 1562.5 1863 1562.5 1855.54 1562.5 1849.5 1556.23 1849.5 1548.5Z" stroke="#76AC2F" stroke-width="6.875" stroke-linecap="butt" stroke-linejoin="miter" stroke-miterlimit="8" stroke-opacity="1" fill="none" fill-rule="evenodd"/><path d="M1893.5 1561C1893.5 1553.54 1899.54 1547.5 1907 1547.5 1914.46 1547.5 1920.5 1553.54 1920.5 1561 1920.5 1568.46 1914.46 1574.5 1907 1574.5 1899.54 1574.5 1893.5 1568.46 1893.5 1561Z" stroke="#76AC2F" stroke-width="6.875" stroke-linecap="butt" stroke-linejoin="miter" stroke-miterlimit="8" stroke-opacity="1" fill="none" fill-rule="evenodd"/><path d="M1937.5 1544.5C1937.5 1536.77 1943.77 1530.5 1951.5 1530.5 1959.23 1530.5 1965.5 1536.77 1965.5 1544.5 1965.5 1552.23 1959.23 1558.5 1951.5 1558.5 1943.77 1558.5 1937.5 1552.23 1937.5 1544.5Z" stroke="#76AC2F" stroke-width="6.875" stroke-linecap="butt" stroke-linejoin="miter" stroke-miterlimit="8" stroke-opacity="1" fill="none" fill-rule="evenodd"/><path d="M1981.5 1488C1981.5 1480.54 1987.77 1474.5 1995.5 1474.5 2003.23 1474.5 2009.5 1480.54 2009.5 1488 2009.5 1495.46 2003.23 1501.5 1995.5 1501.5 1987.77 1501.5 1981.5 1495.46 1981.5 1488Z" stroke="#76AC2F" stroke-width="6.875" stroke-linecap="butt" stroke-linejoin="miter" stroke-miterlimit="8" stroke-opacity="1" fill="none" fill-rule="evenodd"/><path d="M2025.5 1595.5C2025.5 1587.77 2031.77 1581.5 2039.5 1581.5 2047.23 1581.5 2053.5 1587.77 2053.5 1595.5 2053.5 1603.23 2047.23 1609.5 2039.5 1609.5 2031.77 1609.5 2025.5 1603.23 2025.5 1595.5Z" stroke="#76AC2F" stroke-width="6.875" stroke-linecap="butt" stroke-linejoin="miter" stroke-miterlimit="8" stroke-opacity="1" fill="none" fill-rule="evenodd"/><path d="M2070.5 1608C2070.5 1600.54 2076.54 1594.5 2084 1594.5 2091.46 1594.5 2097.5 1600.54 2097.5 1608 2097.5 1615.46 2091.46 1621.5 2084 1621.5 2076.54 1621.5 2070.5 1615.46 2070.5 1608Z" stroke="#76AC2F" stroke-width="6.875" stroke-linecap="butt" stroke-linejoin="miter" stroke-miterlimit="8" stroke-opacity="1" fill="none" fill-rule="evenodd"/><path d="M2114.5 1563.5C2114.5 1555.77 2120.77 1549.5 2128.5 1549.5 2136.23 1549.5 2142.5 1555.77 2142.5 1563.5 2142.5 1571.23 2136.23 1577.5 2128.5 1577.5 2120.77 1577.5 2114.5 1571.23 2114.5 1563.5Z" stroke="#76AC2F" stroke-width="6.875" stroke-linecap="butt" stroke-linejoin="miter" stroke-miterlimit="8" stroke-opacity="1" fill="none" fill-rule="evenodd"/><path d="M2158.5 1525.5C2158.5 1517.77 2164.77 1511.5 2172.5 1511.5 2180.23 1511.5 2186.5 1517.77 2186.5 1525.5 2186.5 1533.23 2180.23 1539.5 2172.5 1539.5 2164.77 1539.5 2158.5 1533.23 2158.5 1525.5Z" stroke="#76AC2F" stroke-width="6.875" stroke-linecap="butt" stroke-linejoin="miter" stroke-miterlimit="8" stroke-opacity="1" fill="none" fill-rule="evenodd"/><path d="M2202.5 1546C2202.5 1538.54 2208.77 1532.5 2216.5 1532.5 2224.23 1532.5 2230.5 1538.54 2230.5 1546 2230.5 1553.46 2224.23 1559.5 2216.5 1559.5 2208.77 1559.5 2202.5 1553.46 2202.5 1546Z" stroke="#76AC2F" stroke-width="6.875" stroke-linecap="butt" stroke-linejoin="miter" stroke-miterlimit="8" stroke-opacity="1" fill="none" fill-rule="evenodd"/><path d="M2246.5 1504.5C2246.5 1496.77 2252.77 1490.5 2260.5 1490.5 2268.23 1490.5 2274.5 1496.77 2274.5 1504.5 2274.5 1512.23 2268.23 1518.5 2260.5 1518.5 2252.77 1518.5 2246.5 1512.23 2246.5 1504.5Z" stroke="#76AC2F" stroke-width="6.875" stroke-linecap="butt" stroke-linejoin="miter" stroke-miterlimit="8" stroke-opacity="1" fill="none" fill-rule="evenodd"/><path d="M2291.5 1499.5C2291.5 1491.77 2297.77 1485.5 2305.5 1485.5 2313.23 1485.5 2319.5 1491.77 2319.5 1499.5 2319.5 1507.23 2313.23 1513.5 2305.5 1513.5 2297.77 1513.5 2291.5 1507.23 2291.5 1499.5Z" stroke="#76AC2F" stroke-width="6.875" stroke-linecap="butt" stroke-linejoin="miter" stroke-miterlimit="8" stroke-opacity="1" fill="none" fill-rule="evenodd"/><path d="M2335.5 1505.5C2335.5 1497.77 2341.77 1491.5 2349.5 1491.5 2357.23 1491.5 2363.5 1497.77 2363.5 1505.5 2363.5 1513.23 2357.23 1519.5 2349.5 1519.5 2341.77 1519.5 2335.5 1513.23 2335.5 1505.5Z" stroke="#76AC2F" stroke-width="6.875" stroke-linecap="butt" stroke-linejoin="miter" stroke-miterlimit="8" stroke-opacity="1" fill="none" fill-rule="evenodd"/><path d="M2379.5 1658C2379.5 1650.54 2385.77 1644.5 2393.5 1644.5 2401.23 1644.5 2407.5 1650.54 2407.5 1658 2407.5 1665.46 2401.23 1671.5 2393.5 1671.5 2385.77 1671.5 2379.5 1665.46 2379.5 1658Z" stroke="#76AC2F" stroke-width="6.875" stroke-linecap="butt" stroke-linejoin="miter" stroke-miterlimit="8" stroke-opacity="1" fill="none" fill-rule="evenodd"/><path d="M2423.5 1646C2423.5 1638.54 2429.77 1632.5 2437.5 1632.5 2445.23 1632.5 2451.5 1638.54 2451.5 1646 2451.5 1653.46 2445.23 1659.5 2437.5 1659.5 2429.77 1659.5 2423.5 1653.46 2423.5 1646Z" stroke="#76AC2F" stroke-width="6.875" stroke-linecap="butt" stroke-linejoin="miter" stroke-miterlimit="8" stroke-opacity="1" fill="none" fill-rule="evenodd"/><path d="M2468.5 1522C2468.5 1514.54 2474.54 1508.5 2482 1508.5 2489.46 1508.5 2495.5 1514.54 2495.5 1522 2495.5 1529.46 2489.46 1535.5 2482 1535.5 2474.54 1535.5 2468.5 1529.46 2468.5 1522Z" stroke="#76AC2F" stroke-width="6.875" stroke-linecap="butt" stroke-linejoin="miter" stroke-miterlimit="8" stroke-opacity="1" fill="none" fill-rule="evenodd"/><path d="M2512.5 1504C2512.5 1496.54 2518.54 1490.5 2526 1490.5 2533.46 1490.5 2539.5 1496.54 2539.5 1504 2539.5 1511.46 2533.46 1517.5 2526 1517.5 2518.54 1517.5 2512.5 1511.46 2512.5 1504Z" stroke="#76AC2F" stroke-width="6.875" stroke-linecap="butt" stroke-linejoin="miter" stroke-miterlimit="8" stroke-opacity="1" fill="none" fill-rule="evenodd"/><path d="M2556.5 1451.5C2556.5 1443.77 2562.77 1437.5 2570.5 1437.5 2578.23 1437.5 2584.5 1443.77 2584.5 1451.5 2584.5 1459.23 2578.23 1465.5 2570.5 1465.5 2562.77 1465.5 2556.5 1459.23 2556.5 1451.5Z" stroke="#76AC2F" stroke-width="6.875" stroke-linecap="butt" stroke-linejoin="miter" stroke-miterlimit="8" stroke-opacity="1" fill="none" fill-rule="evenodd"/><path d="M2600.5 1457.5C2600.5 1449.77 2606.77 1443.5 2614.5 1443.5 2622.23 1443.5 2628.5 1449.77 2628.5 1457.5 2628.5 1465.23 2622.23 1471.5 2614.5 1471.5 2606.77 1471.5 2600.5 1465.23 2600.5 1457.5Z" stroke="#76AC2F" stroke-width="6.875" stroke-linecap="butt" stroke-linejoin="miter" stroke-miterlimit="8" stroke-opacity="1" fill="none" fill-rule="evenodd"/><path d="M2645.5 1473.5C2645.5 1465.77 2651.54 1459.5 2659 1459.5 2666.46 1459.5 2672.5 1465.77 2672.5 1473.5 2672.5 1481.23 2666.46 1487.5 2659 1487.5 2651.54 1487.5 2645.5 1481.23 2645.5 1473.5Z" stroke="#76AC2F" stroke-width="6.875" stroke-linecap="butt" stroke-linejoin="miter" stroke-miterlimit="8" stroke-opacity="1" fill="none" fill-rule="evenodd"/><path d="M2689.5 1589C2689.5 1581.54 2695.54 1575.5 2703 1575.5 2710.46 1575.5 2716.5 1581.54 2716.5 1589 2716.5 1596.46 2710.46 1602.5 2703 1602.5 2695.54 1602.5 2689.5 1596.46 2689.5 1589Z" stroke="#76AC2F" stroke-width="6.875" stroke-linecap="butt" stroke-linejoin="miter" stroke-miterlimit="8" stroke-opacity="1" fill="none" fill-rule="evenodd"/><path d="M2733.5 1682C2733.5 1674.54 2739.54 1668.5 2747 1668.5 2754.46 1668.5 2760.5 1674.54 2760.5 1682 2760.5 1689.46 2754.46 1695.5 2747 1695.5 2739.54 1695.5 2733.5 1689.46 2733.5 1682Z" stroke="#76AC2F" stroke-width="6.875" stroke-linecap="butt" stroke-linejoin="miter" stroke-miterlimit="8" stroke-opacity="1" fill="none" fill-rule="evenodd"/><path d="M2778.5 1632C2778.5 1624.54 2784.54 1618.5 2792 1618.5 2799.46 1618.5 2805.5 1624.54 2805.5 1632 2805.5 1639.46 2799.46 1645.5 2792 1645.5 2784.54 1645.5 2778.5 1639.46 2778.5 1632Z" stroke="#76AC2F" stroke-width="6.875" stroke-linecap="butt" stroke-linejoin="miter" stroke-miterlimit="8" stroke-opacity="1" fill="none" fill-rule="evenodd"/><path d="M2822.5 1493C2822.5 1485.54 2828.54 1479.5 2836 1479.5 2843.46 1479.5 2849.5 1485.54 2849.5 1493 2849.5 1500.46 2843.46 1506.5 2836 1506.5 2828.54 1506.5 2822.5 1500.46 2822.5 1493Z" stroke="#76AC2F" stroke-width="6.875" stroke-linecap="butt" stroke-linejoin="miter" stroke-miterlimit="8" stroke-opacity="1" fill="none" fill-rule="evenodd"/><path d="M2866.5 1543.5C2866.5 1535.77 2872.54 1529.5 2880 1529.5 2887.46 1529.5 2893.5 1535.77 2893.5 1543.5 2893.5 1551.23 2887.46 1557.5 2880 1557.5 2872.54 1557.5 2866.5 1551.23 2866.5 1543.5Z" stroke="#76AC2F" stroke-width="6.875" stroke-linecap="butt" stroke-linejoin="miter" stroke-miterlimit="8" stroke-opacity="1" fill="none" fill-rule="evenodd"/><path d="M2910.5 1844.5C2910.5 1836.77 2916.54 1830.5 2924 1830.5 2931.46 1830.5 2937.5 1836.77 2937.5 1844.5 2937.5 1852.23 2931.46 1858.5 2924 1858.5 2916.54 1858.5 2910.5 1852.23 2910.5 1844.5Z" stroke="#76AC2F" stroke-width="6.875" stroke-linecap="butt" stroke-linejoin="miter" stroke-miterlimit="8" stroke-opacity="1" fill="none" fill-rule="evenodd"/><path d="M2954.5 1772.5C2954.5 1764.77 2960.54 1758.5 2968 1758.5 2975.46 1758.5 2981.5 1764.77 2981.5 1772.5 2981.5 1780.23 2975.46 1786.5 2968 1786.5 2960.54 1786.5 2954.5 1780.23 2954.5 1772.5Z" stroke="#76AC2F" stroke-width="6.875" stroke-linecap="butt" stroke-linejoin="miter" stroke-miterlimit="8" stroke-opacity="1" fill="none" fill-rule="evenodd"/><path d="M2998.5 1698.5C2998.5 1690.77 3004.77 1684.5 3012.5 1684.5 3020.23 1684.5 3026.5 1690.77 3026.5 1698.5 3026.5 1706.23 3020.23 1712.5 3012.5 1712.5 3004.77 1712.5 2998.5 1706.23 2998.5 1698.5Z" stroke="#76AC2F" stroke-width="6.875" stroke-linecap="butt" stroke-linejoin="miter" stroke-miterlimit="8" stroke-opacity="1" fill="none" fill-rule="evenodd"/><path d="M3042.5 1497C3042.5 1489.54 3048.77 1483.5 3056.5 1483.5 3064.23 1483.5 3070.5 1489.54 3070.5 1497 3070.5 1504.46 3064.23 1510.5 3056.5 1510.5 3048.77 1510.5 3042.5 1504.46 3042.5 1497Z" stroke="#76AC2F" stroke-width="6.875" stroke-linecap="butt" stroke-linejoin="miter" stroke-miterlimit="8" stroke-opacity="1" fill="none" fill-rule="evenodd"/><path d="M3087.5 1619.5C3087.5 1611.77 3093.54 1605.5 3101 1605.5 3108.46 1605.5 3114.5 1611.77 3114.5 1619.5 3114.5 1627.23 3108.46 1633.5 3101 1633.5 3093.54 1633.5 3087.5 1627.23 3087.5 1619.5Z" stroke="#76AC2F" stroke-width="6.875" stroke-linecap="butt" stroke-linejoin="miter" stroke-miterlimit="8" stroke-opacity="1" fill="none" fill-rule="evenodd"/><path d="M3131.5 1502.5C3131.5 1494.77 3137.54 1488.5 3145 1488.5 3152.46 1488.5 3158.5 1494.77 3158.5 1502.5 3158.5 1510.23 3152.46 1516.5 3145 1516.5 3137.54 1516.5 3131.5 1510.23 3131.5 1502.5Z" stroke="#76AC2F" stroke-width="6.875" stroke-linecap="butt" stroke-linejoin="miter" stroke-miterlimit="8" stroke-opacity="1" fill="none" fill-rule="evenodd"/><path d="M3175.5 1531.5C3175.5 1523.77 3181.77 1517.5 3189.5 1517.5 3197.23 1517.5 3203.5 1523.77 3203.5 1531.5 3203.5 1539.23 3197.23 1545.5 3189.5 1545.5 3181.77 1545.5 3175.5 1539.23 3175.5 1531.5Z" stroke="#76AC2F" stroke-width="6.875" stroke-linecap="butt" stroke-linejoin="miter" stroke-miterlimit="8" stroke-opacity="1" fill="none" fill-rule="evenodd"/><path d="M3219.5 1486.5C3219.5 1478.77 3225.77 1472.5 3233.5 1472.5 3241.23 1472.5 3247.5 1478.77 3247.5 1486.5 3247.5 1494.23 3241.23 1500.5 3233.5 1500.5 3225.77 1500.5 3219.5 1494.23 3219.5 1486.5Z" stroke="#76AC2F" stroke-width="6.875" stroke-linecap="butt" stroke-linejoin="miter" stroke-miterlimit="8" stroke-opacity="1" fill="none" fill-rule="evenodd"/><path d="M3263.5 1480.5C3263.5 1472.77 3269.77 1466.5 3277.5 1466.5 3285.23 1466.5 3291.5 1472.77 3291.5 1480.5 3291.5 1488.23 3285.23 1494.5 3277.5 1494.5 3269.77 1494.5 3263.5 1488.23 3263.5 1480.5Z" stroke="#76AC2F" stroke-width="6.875" stroke-linecap="butt" stroke-linejoin="miter" stroke-miterlimit="8" stroke-opacity="1" fill="none" fill-rule="evenodd"/><path d="M3308.5 1559.5C3308.5 1551.77 3314.77 1545.5 3322.5 1545.5 3330.23 1545.5 3336.5 1551.77 3336.5 1559.5 3336.5 1567.23 3330.23 1573.5 3322.5 1573.5 3314.77 1573.5 3308.5 1567.23 3308.5 1559.5Z" stroke="#76AC2F" stroke-width="6.875" stroke-linecap="butt" stroke-linejoin="miter" stroke-miterlimit="8" stroke-opacity="1" fill="none" fill-rule="evenodd"/><path d="M3352.5 1700C3352.5 1692.54 3358.77 1686.5 3366.5 1686.5 3374.23 1686.5 3380.5 1692.54 3380.5 1700 3380.5 1707.46 3374.23 1713.5 3366.5 1713.5 3358.77 1713.5 3352.5 1707.46 3352.5 1700Z" stroke="#76AC2F" stroke-width="6.875" stroke-linecap="butt" stroke-linejoin="miter" stroke-miterlimit="8" stroke-opacity="1" fill="none" fill-rule="evenodd"/><path d="M3396.5 1536C3396.5 1528.54 3402.77 1522.5 3410.5 1522.5 3418.23 1522.5 3424.5 1528.54 3424.5 1536 3424.5 1543.46 3418.23 1549.5 3410.5 1549.5 3402.77 1549.5 3396.5 1543.46 3396.5 1536Z" stroke="#76AC2F" stroke-width="6.875" stroke-linecap="butt" stroke-linejoin="miter" stroke-miterlimit="8" stroke-opacity="1" fill="none" fill-rule="evenodd"/><path d="M3440.5 1557C3440.5 1549.54 3446.77 1543.5 3454.5 1543.5 3462.23 1543.5 3468.5 1549.54 3468.5 1557 3468.5 1564.46 3462.23 1570.5 3454.5 1570.5 3446.77 1570.5 3440.5 1564.46 3440.5 1557Z" stroke="#76AC2F" stroke-width="6.875" stroke-linecap="butt" stroke-linejoin="miter" stroke-miterlimit="8" stroke-opacity="1" fill="none" fill-rule="evenodd"/><path d="M3484.5 1468.5C3484.5 1460.77 3490.77 1454.5 3498.5 1454.5 3506.23 1454.5 3512.5 1460.77 3512.5 1468.5 3512.5 1476.23 3506.23 1482.5 3498.5 1482.5 3490.77 1482.5 3484.5 1476.23 3484.5 1468.5Z" stroke="#76AC2F" stroke-width="6.875" stroke-linecap="butt" stroke-linejoin="miter" stroke-miterlimit="8" stroke-opacity="1" fill="none" fill-rule="evenodd"/><path d="M3529.5 1459.5C3529.5 1451.77 3535.77 1445.5 3543.5 1445.5 3551.23 1445.5 3557.5 1451.77 3557.5 1459.5 3557.5 1467.23 3551.23 1473.5 3543.5 1473.5 3535.77 1473.5 3529.5 1467.23 3529.5 1459.5Z" stroke="#76AC2F" stroke-width="6.875" stroke-linecap="butt" stroke-linejoin="miter" stroke-miterlimit="8" stroke-opacity="1" fill="none" fill-rule="evenodd"/><path d="M3573.5 1589C3573.5 1581.54 3579.77 1575.5 3587.5 1575.5 3595.23 1575.5 3601.5 1581.54 3601.5 1589 3601.5 1596.46 3595.23 1602.5 3587.5 1602.5 3579.77 1602.5 3573.5 1596.46 3573.5 1589Z" stroke="#76AC2F" stroke-width="6.875" stroke-linecap="butt" stroke-linejoin="miter" stroke-miterlimit="8" stroke-opacity="1" fill="none" fill-rule="evenodd"/><path d="M934.5 2044.44 978.612 2016.94 1022.72 1948.77 1066.84 2016.94 1111.52 2034.13 1155.63 2076.52 1199.74 2127.5 1243.85 2039.28 1287.97 1999.18 1332.65 1949.35 1376.76 2004.34 1420.87 1987.73 1464.99 2052.46 1509.1 2104.59 1553.78 2008.35 1597.32 1952.78 1642 2002.62 1686.12 1999.76 1730.23 2010.64 1774.34 2056.47 1818.45 2107.45 1863.14 1959.09 1907.25 1991.16 1951.36 1999.18 1995.47 1981.43 2039.58 2054.75 2084.27 2034.13 2128.38 1964.81 2172.49 1925.86 2216.6 1953.93 2260.71 1982.57 2304.83 1925.86 2349.51 1980.28 2393.62 2042.72 2437.73 2030.69 2481.84 1975.7 2525.96 1988.87 2570.64 1921.85 2614.75 1973.98 2658.86 1964.24 2702.98 2047.88 2747.09 2061.05 2791.77 2038.71 2835.88 2004.34 2880 2017.51 2924.11 2110.89 2968.22 1980.85 3012.9 1992.88 3056.44 1895.5 3101.13 1983.72 3145.24 1933.88 3189.35 1941.9 3233.46 1918.41 3277.57 1938.46 3322.26 1956.79 3366.37 2032.98 3410.48 1971.11 3454.59 1986.01 3498.7 1906.38 3543.39 1936.74 3587.5 2034.7" stroke="#42BAED" stroke-width="6.875" stroke-linecap="butt" stroke-linejoin="round" stroke-miterlimit="10" stroke-opacity="1" fill="none" fill-rule="evenodd"/><path d="M920.5 2044.5C920.5 2036.77 926.768 2030.5 934.5 2030.5 942.232 2030.5 948.5 2036.77 948.5 2044.5 948.5 2052.23 942.232 2058.5 934.5 2058.5 926.768 2058.5 920.5 2052.23 920.5 2044.5Z" stroke="#42BAED" stroke-width="6.875" stroke-linecap="butt" stroke-linejoin="miter" stroke-miterlimit="8" stroke-opacity="1" fill="none" fill-rule="evenodd"/><path d="M964.5 2017C964.5 2009.54 970.768 2003.5 978.5 2003.5 986.232 2003.5 992.5 2009.54 992.5 2017 992.5 2024.46 986.232 2030.5 978.5 2030.5 970.768 2030.5 964.5 2024.46 964.5 2017Z" stroke="#42BAED" stroke-width="6.875" stroke-linecap="butt" stroke-linejoin="miter" stroke-miterlimit="8" stroke-opacity="1" fill="none" fill-rule="evenodd"/><path d="M1008.5 1949C1008.5 1941.54 1014.77 1935.5 1022.5 1935.5 1030.23 1935.5 1036.5 1941.54 1036.5 1949 1036.5 1956.46 1030.23 1962.5 1022.5 1962.5 1014.77 1962.5 1008.5 1956.46 1008.5 1949Z" stroke="#42BAED" stroke-width="6.875" stroke-linecap="butt" stroke-linejoin="miter" stroke-miterlimit="8" stroke-opacity="1" fill="none" fill-rule="evenodd"/><path d="M1052.5 2016.5C1052.5 2008.77 1058.77 2002.5 1066.5 2002.5 1074.23 2002.5 1080.5 2008.77 1080.5 2016.5 1080.5 2024.23 1074.23 2030.5 1066.5 2030.5 1058.77 2030.5 1052.5 2024.23 1052.5 2016.5Z" stroke="#42BAED" stroke-width="6.875" stroke-linecap="butt" stroke-linejoin="miter" stroke-miterlimit="8" stroke-opacity="1" fill="none" fill-rule="evenodd"/><path d="M1097.5 2034.5C1097.5 2026.77 1103.77 2020.5 1111.5 2020.5 1119.23 2020.5 1125.5 2026.77 1125.5 2034.5 1125.5 2042.23 1119.23 2048.5 1111.5 2048.5 1103.77 2048.5 1097.5 2042.23 1097.5 2034.5Z" stroke="#42BAED" stroke-width="6.875" stroke-linecap="butt" stroke-linejoin="miter" stroke-miterlimit="8" stroke-opacity="1" fill="none" fill-rule="evenodd"/><path d="M1141.5 2077.5C1141.5 2069.77 1147.77 2063.5 1155.5 2063.5 1163.23 2063.5 1169.5 2069.77 1169.5 2077.5 1169.5 2085.23 1163.23 2091.5 1155.5 2091.5 1147.77 2091.5 1141.5 2085.23 1141.5 2077.5Z" stroke="#42BAED" stroke-width="6.875" stroke-linecap="butt" stroke-linejoin="miter" stroke-miterlimit="8" stroke-opacity="1" fill="none" fill-rule="evenodd"/><path d="M1185.5 2127.5C1185.5 2119.77 1191.77 2113.5 1199.5 2113.5 1207.23 2113.5 1213.5 2119.77 1213.5 2127.5 1213.5 2135.23 1207.23 2141.5 1199.5 2141.5 1191.77 2141.5 1185.5 2135.23 1185.5 2127.5Z" stroke="#42BAED" stroke-width="6.875" stroke-linecap="butt" stroke-linejoin="miter" stroke-miterlimit="8" stroke-opacity="1" fill="none" fill-rule="evenodd"/><path d="M1229.5 2039.5C1229.5 2031.77 1235.77 2025.5 1243.5 2025.5 1251.23 2025.5 1257.5 2031.77 1257.5 2039.5 1257.5 2047.23 1251.23 2053.5 1243.5 2053.5 1235.77 2053.5 1229.5 2047.23 1229.5 2039.5Z" stroke="#42BAED" stroke-width="6.875" stroke-linecap="butt" stroke-linejoin="miter" stroke-miterlimit="8" stroke-opacity="1" fill="none" fill-rule="evenodd"/><path d="M1274.5 1999.5C1274.5 1991.77 1280.54 1985.5 1288 1985.5 1295.46 1985.5 1301.5 1991.77 1301.5 1999.5 1301.5 2007.23 1295.46 2013.5 1288 2013.5 1280.54 2013.5 1274.5 2007.23 1274.5 1999.5Z" stroke="#42BAED" stroke-width="6.875" stroke-linecap="butt" stroke-linejoin="miter" stroke-miterlimit="8" stroke-opacity="1" fill="none" fill-rule="evenodd"/><path d="M1318.5 1949.5C1318.5 1941.77 1324.77 1935.5 1332.5 1935.5 1340.23 1935.5 1346.5 1941.77 1346.5 1949.5 1346.5 1957.23 1340.23 1963.5 1332.5 1963.5 1324.77 1963.5 1318.5 1957.23 1318.5 1949.5Z" stroke="#42BAED" stroke-width="6.875" stroke-linecap="butt" stroke-linejoin="miter" stroke-miterlimit="8" stroke-opacity="1" fill="none" fill-rule="evenodd"/><path d="M1362.5 2004.5C1362.5 1996.77 1368.77 1990.5 1376.5 1990.5 1384.23 1990.5 1390.5 1996.77 1390.5 2004.5 1390.5 2012.23 1384.23 2018.5 1376.5 2018.5 1368.77 2018.5 1362.5 2012.23 1362.5 2004.5Z" stroke="#42BAED" stroke-width="6.875" stroke-linecap="butt" stroke-linejoin="miter" stroke-miterlimit="8" stroke-opacity="1" fill="none" fill-rule="evenodd"/><path d="M1407.5 1988C1407.5 1980.54 1413.54 1974.5 1421 1974.5 1428.46 1974.5 1434.5 1980.54 1434.5 1988 1434.5 1995.46 1428.46 2001.5 1421 2001.5 1413.54 2001.5 1407.5 1995.46 1407.5 1988Z" stroke="#42BAED" stroke-width="6.875" stroke-linecap="butt" stroke-linejoin="miter" stroke-miterlimit="8" stroke-opacity="1" fill="none" fill-rule="evenodd"/><path d="M1451.5 2052.5C1451.5 2044.77 1457.54 2038.5 1465 2038.5 1472.46 2038.5 1478.5 2044.77 1478.5 2052.5 1478.5 2060.23 1472.46 2066.5 1465 2066.5 1457.54 2066.5 1451.5 2060.23 1451.5 2052.5Z" stroke="#42BAED" stroke-width="6.875" stroke-linecap="butt" stroke-linejoin="miter" stroke-miterlimit="8" stroke-opacity="1" fill="none" fill-rule="evenodd"/><path d="M1495.5 2105C1495.5 2097.54 1501.54 2091.5 1509 2091.5 1516.46 2091.5 1522.5 2097.54 1522.5 2105 1522.5 2112.46 1516.46 2118.5 1509 2118.5 1501.54 2118.5 1495.5 2112.46 1495.5 2105Z" stroke="#42BAED" stroke-width="6.875" stroke-linecap="butt" stroke-linejoin="miter" stroke-miterlimit="8" stroke-opacity="1" fill="none" fill-rule="evenodd"/><path d="M1539.5 2008.5C1539.5 2000.77 1545.77 1994.5 1553.5 1994.5 1561.23 1994.5 1567.5 2000.77 1567.5 2008.5 1567.5 2016.23 1561.23 2022.5 1553.5 2022.5 1545.77 2022.5 1539.5 2016.23 1539.5 2008.5Z" stroke="#42BAED" stroke-width="6.875" stroke-linecap="butt" stroke-linejoin="miter" stroke-miterlimit="8" stroke-opacity="1" fill="none" fill-rule="evenodd"/><path d="M1583.5 1953C1583.5 1945.54 1589.77 1939.5 1597.5 1939.5 1605.23 1939.5 1611.5 1945.54 1611.5 1953 1611.5 1960.46 1605.23 1966.5 1597.5 1966.5 1589.77 1966.5 1583.5 1960.46 1583.5 1953Z" stroke="#42BAED" stroke-width="6.875" stroke-linecap="butt" stroke-linejoin="miter" stroke-miterlimit="8" stroke-opacity="1" fill="none" fill-rule="evenodd"/><path d="M1628.5 2003.5C1628.5 1995.77 1634.54 1989.5 1642 1989.5 1649.46 1989.5 1655.5 1995.77 1655.5 2003.5 1655.5 2011.23 1649.46 2017.5 1642 2017.5 1634.54 2017.5 1628.5 2011.23 1628.5 2003.5Z" stroke="#42BAED" stroke-width="6.875" stroke-linecap="butt" stroke-linejoin="miter" stroke-miterlimit="8" stroke-opacity="1" fill="none" fill-rule="evenodd"/><path d="M1672.5 2000C1672.5 1992.54 1678.54 1986.5 1686 1986.5 1693.46 1986.5 1699.5 1992.54 1699.5 2000 1699.5 2007.46 1693.46 2013.5 1686 2013.5 1678.54 2013.5 1672.5 2007.46 1672.5 2000Z" stroke="#42BAED" stroke-width="6.875" stroke-linecap="butt" stroke-linejoin="miter" stroke-miterlimit="8" stroke-opacity="1" fill="none" fill-rule="evenodd"/><path d="M1716.5 2011C1716.5 2003.54 1722.54 1997.5 1730 1997.5 1737.46 1997.5 1743.5 2003.54 1743.5 2011 1743.5 2018.46 1737.46 2024.5 1730 2024.5 1722.54 2024.5 1716.5 2018.46 1716.5 2011Z" stroke="#42BAED" stroke-width="6.875" stroke-linecap="butt" stroke-linejoin="miter" stroke-miterlimit="8" stroke-opacity="1" fill="none" fill-rule="evenodd"/><path d="M1760.5 2056.5C1760.5 2048.77 1766.77 2042.5 1774.5 2042.5 1782.23 2042.5 1788.5 2048.77 1788.5 2056.5 1788.5 2064.23 1782.23 2070.5 1774.5 2070.5 1766.77 2070.5 1760.5 2064.23 1760.5 2056.5Z" stroke="#42BAED" stroke-width="6.875" stroke-linecap="butt" stroke-linejoin="miter" stroke-miterlimit="8" stroke-opacity="1" fill="none" fill-rule="evenodd"/><path d="M1804.5 2107.5C1804.5 2099.77 1810.77 2093.5 1818.5 2093.5 1826.23 2093.5 1832.5 2099.77 1832.5 2107.5 1832.5 2115.23 1826.23 2121.5 1818.5 2121.5 1810.77 2121.5 1804.5 2115.23 1804.5 2107.5Z" stroke="#42BAED" stroke-width="6.875" stroke-linecap="butt" stroke-linejoin="miter" stroke-miterlimit="8" stroke-opacity="1" fill="none" fill-rule="evenodd"/><path d="M1849.5 1959.5C1849.5 1951.77 1855.54 1945.5 1863 1945.5 1870.46 1945.5 1876.5 1951.77 1876.5 1959.5 1876.5 1967.23 1870.46 1973.5 1863 1973.5 1855.54 1973.5 1849.5 1967.23 1849.5 1959.5Z" stroke="#42BAED" stroke-width="6.875" stroke-linecap="butt" stroke-linejoin="miter" stroke-miterlimit="8" stroke-opacity="1" fill="none" fill-rule="evenodd"/><path d="M1893.5 1991.5C1893.5 1983.77 1899.54 1977.5 1907 1977.5 1914.46 1977.5 1920.5 1983.77 1920.5 1991.5 1920.5 1999.23 1914.46 2005.5 1907 2005.5 1899.54 2005.5 1893.5 1999.23 1893.5 1991.5Z" stroke="#42BAED" stroke-width="6.875" stroke-linecap="butt" stroke-linejoin="miter" stroke-miterlimit="8" stroke-opacity="1" fill="none" fill-rule="evenodd"/><path d="M1937.5 1999.5C1937.5 1991.77 1943.77 1985.5 1951.5 1985.5 1959.23 1985.5 1965.5 1991.77 1965.5 1999.5 1965.5 2007.23 1959.23 2013.5 1951.5 2013.5 1943.77 2013.5 1937.5 2007.23 1937.5 1999.5Z" stroke="#42BAED" stroke-width="6.875" stroke-linecap="butt" stroke-linejoin="miter" stroke-miterlimit="8" stroke-opacity="1" fill="none" fill-rule="evenodd"/><path d="M1981.5 1981.5C1981.5 1973.77 1987.77 1967.5 1995.5 1967.5 2003.23 1967.5 2009.5 1973.77 2009.5 1981.5 2009.5 1989.23 2003.23 1995.5 1995.5 1995.5 1987.77 1995.5 1981.5 1989.23 1981.5 1981.5Z" stroke="#42BAED" stroke-width="6.875" stroke-linecap="butt" stroke-linejoin="miter" stroke-miterlimit="8" stroke-opacity="1" fill="none" fill-rule="evenodd"/><path d="M2025.5 2055C2025.5 2047.54 2031.77 2041.5 2039.5 2041.5 2047.23 2041.5 2053.5 2047.54 2053.5 2055 2053.5 2062.46 2047.23 2068.5 2039.5 2068.5 2031.77 2068.5 2025.5 2062.46 2025.5 2055Z" stroke="#42BAED" stroke-width="6.875" stroke-linecap="butt" stroke-linejoin="miter" stroke-miterlimit="8" stroke-opacity="1" fill="none" fill-rule="evenodd"/><path d="M2070.5 2034.5C2070.5 2026.77 2076.54 2020.5 2084 2020.5 2091.46 2020.5 2097.5 2026.77 2097.5 2034.5 2097.5 2042.23 2091.46 2048.5 2084 2048.5 2076.54 2048.5 2070.5 2042.23 2070.5 2034.5Z" stroke="#42BAED" stroke-width="6.875" stroke-linecap="butt" stroke-linejoin="miter" stroke-miterlimit="8" stroke-opacity="1" fill="none" fill-rule="evenodd"/><path d="M2114.5 1965C2114.5 1957.54 2120.77 1951.5 2128.5 1951.5 2136.23 1951.5 2142.5 1957.54 2142.5 1965 2142.5 1972.46 2136.23 1978.5 2128.5 1978.5 2120.77 1978.5 2114.5 1972.46 2114.5 1965Z" stroke="#42BAED" stroke-width="6.875" stroke-linecap="butt" stroke-linejoin="miter" stroke-miterlimit="8" stroke-opacity="1" fill="none" fill-rule="evenodd"/><path d="M2158.5 1926.5C2158.5 1918.77 2164.77 1912.5 2172.5 1912.5 2180.23 1912.5 2186.5 1918.77 2186.5 1926.5 2186.5 1934.23 2180.23 1940.5 2172.5 1940.5 2164.77 1940.5 2158.5 1934.23 2158.5 1926.5Z" stroke="#42BAED" stroke-width="6.875" stroke-linecap="butt" stroke-linejoin="miter" stroke-miterlimit="8" stroke-opacity="1" fill="none" fill-rule="evenodd"/><path d="M2202.5 1954C2202.5 1946.54 2208.77 1940.5 2216.5 1940.5 2224.23 1940.5 2230.5 1946.54 2230.5 1954 2230.5 1961.46 2224.23 1967.5 2216.5 1967.5 2208.77 1967.5 2202.5 1961.46 2202.5 1954Z" stroke="#42BAED" stroke-width="6.875" stroke-linecap="butt" stroke-linejoin="miter" stroke-miterlimit="8" stroke-opacity="1" fill="none" fill-rule="evenodd"/><path d="M2246.5 1983C2246.5 1975.54 2252.77 1969.5 2260.5 1969.5 2268.23 1969.5 2274.5 1975.54 2274.5 1983 2274.5 1990.46 2268.23 1996.5 2260.5 1996.5 2252.77 1996.5 2246.5 1990.46 2246.5 1983Z" stroke="#42BAED" stroke-width="6.875" stroke-linecap="butt" stroke-linejoin="miter" stroke-miterlimit="8" stroke-opacity="1" fill="none" fill-rule="evenodd"/><path d="M2291.5 1926.5C2291.5 1918.77 2297.77 1912.5 2305.5 1912.5 2313.23 1912.5 2319.5 1918.77 2319.5 1926.5 2319.5 1934.23 2313.23 1940.5 2305.5 1940.5 2297.77 1940.5 2291.5 1934.23 2291.5 1926.5Z" stroke="#42BAED" stroke-width="6.875" stroke-linecap="butt" stroke-linejoin="miter" stroke-miterlimit="8" stroke-opacity="1" fill="none" fill-rule="evenodd"/><path d="M2335.5 1980.5C2335.5 1972.77 2341.77 1966.5 2349.5 1966.5 2357.23 1966.5 2363.5 1972.77 2363.5 1980.5 2363.5 1988.23 2357.23 1994.5 2349.5 1994.5 2341.77 1994.5 2335.5 1988.23 2335.5 1980.5Z" stroke="#42BAED" stroke-width="6.875" stroke-linecap="butt" stroke-linejoin="miter" stroke-miterlimit="8" stroke-opacity="1" fill="none" fill-rule="evenodd"/><path d="M2379.5 2043C2379.5 2035.54 2385.77 2029.5 2393.5 2029.5 2401.23 2029.5 2407.5 2035.54 2407.5 2043 2407.5 2050.46 2401.23 2056.5 2393.5 2056.5 2385.77 2056.5 2379.5 2050.46 2379.5 2043Z" stroke="#42BAED" stroke-width="6.875" stroke-linecap="butt" stroke-linejoin="miter" stroke-miterlimit="8" stroke-opacity="1" fill="none" fill-rule="evenodd"/><path d="M2423.5 2031C2423.5 2023.54 2429.77 2017.5 2437.5 2017.5 2445.23 2017.5 2451.5 2023.54 2451.5 2031 2451.5 2038.46 2445.23 2044.5 2437.5 2044.5 2429.77 2044.5 2423.5 2038.46 2423.5 2031Z" stroke="#42BAED" stroke-width="6.875" stroke-linecap="butt" stroke-linejoin="miter" stroke-miterlimit="8" stroke-opacity="1" fill="none" fill-rule="evenodd"/><path d="M2468.5 1976C2468.5 1968.54 2474.54 1962.5 2482 1962.5 2489.46 1962.5 2495.5 1968.54 2495.5 1976 2495.5 1983.46 2489.46 1989.5 2482 1989.5 2474.54 1989.5 2468.5 1983.46 2468.5 1976Z" stroke="#42BAED" stroke-width="6.875" stroke-linecap="butt" stroke-linejoin="miter" stroke-miterlimit="8" stroke-opacity="1" fill="none" fill-rule="evenodd"/><path d="M2512.5 1989C2512.5 1981.54 2518.54 1975.5 2526 1975.5 2533.46 1975.5 2539.5 1981.54 2539.5 1989 2539.5 1996.46 2533.46 2002.5 2526 2002.5 2518.54 2002.5 2512.5 1996.46 2512.5 1989Z" stroke="#42BAED" stroke-width="6.875" stroke-linecap="butt" stroke-linejoin="miter" stroke-miterlimit="8" stroke-opacity="1" fill="none" fill-rule="evenodd"/><path d="M2556.5 1922C2556.5 1914.54 2562.77 1908.5 2570.5 1908.5 2578.23 1908.5 2584.5 1914.54 2584.5 1922 2584.5 1929.46 2578.23 1935.5 2570.5 1935.5 2562.77 1935.5 2556.5 1929.46 2556.5 1922Z" stroke="#42BAED" stroke-width="6.875" stroke-linecap="butt" stroke-linejoin="miter" stroke-miterlimit="8" stroke-opacity="1" fill="none" fill-rule="evenodd"/><path d="M2600.5 1974C2600.5 1966.54 2606.77 1960.5 2614.5 1960.5 2622.23 1960.5 2628.5 1966.54 2628.5 1974 2628.5 1981.46 2622.23 1987.5 2614.5 1987.5 2606.77 1987.5 2600.5 1981.46 2600.5 1974Z" stroke="#42BAED" stroke-width="6.875" stroke-linecap="butt" stroke-linejoin="miter" stroke-miterlimit="8" stroke-opacity="1" fill="none" fill-rule="evenodd"/><path d="M2645.5 1964.5C2645.5 1956.77 2651.54 1950.5 2659 1950.5 2666.46 1950.5 2672.5 1956.77 2672.5 1964.5 2672.5 1972.23 2666.46 1978.5 2659 1978.5 2651.54 1978.5 2645.5 1972.23 2645.5 1964.5Z" stroke="#42BAED" stroke-width="6.875" stroke-linecap="butt" stroke-linejoin="miter" stroke-miterlimit="8" stroke-opacity="1" fill="none" fill-rule="evenodd"/><path d="M2689.5 2048C2689.5 2040.54 2695.54 2034.5 2703 2034.5 2710.46 2034.5 2716.5 2040.54 2716.5 2048 2716.5 2055.46 2710.46 2061.5 2703 2061.5 2695.54 2061.5 2689.5 2055.46 2689.5 2048Z" stroke="#42BAED" stroke-width="6.875" stroke-linecap="butt" stroke-linejoin="miter" stroke-miterlimit="8" stroke-opacity="1" fill="none" fill-rule="evenodd"/><path d="M2733.5 2061.5C2733.5 2053.77 2739.54 2047.5 2747 2047.5 2754.46 2047.5 2760.5 2053.77 2760.5 2061.5 2760.5 2069.23 2754.46 2075.5 2747 2075.5 2739.54 2075.5 2733.5 2069.23 2733.5 2061.5Z" stroke="#42BAED" stroke-width="6.875" stroke-linecap="butt" stroke-linejoin="miter" stroke-miterlimit="8" stroke-opacity="1" fill="none" fill-rule="evenodd"/><path d="M2778.5 2039C2778.5 2031.54 2784.54 2025.5 2792 2025.5 2799.46 2025.5 2805.5 2031.54 2805.5 2039 2805.5 2046.46 2799.46 2052.5 2792 2052.5 2784.54 2052.5 2778.5 2046.46 2778.5 2039Z" stroke="#42BAED" stroke-width="6.875" stroke-linecap="butt" stroke-linejoin="miter" stroke-miterlimit="8" stroke-opacity="1" fill="none" fill-rule="evenodd"/><path d="M2822.5 2004.5C2822.5 1996.77 2828.54 1990.5 2836 1990.5 2843.46 1990.5 2849.5 1996.77 2849.5 2004.5 2849.5 2012.23 2843.46 2018.5 2836 2018.5 2828.54 2018.5 2822.5 2012.23 2822.5 2004.5Z" stroke="#42BAED" stroke-width="6.875" stroke-linecap="butt" stroke-linejoin="miter" stroke-miterlimit="8" stroke-opacity="1" fill="none" fill-rule="evenodd"/><path d="M2866.5 2017.5C2866.5 2009.77 2872.54 2003.5 2880 2003.5 2887.46 2003.5 2893.5 2009.77 2893.5 2017.5 2893.5 2025.23 2887.46 2031.5 2880 2031.5 2872.54 2031.5 2866.5 2025.23 2866.5 2017.5Z" stroke="#42BAED" stroke-width="6.875" stroke-linecap="butt" stroke-linejoin="miter" stroke-miterlimit="8" stroke-opacity="1" fill="none" fill-rule="evenodd"/><path d="M2910.5 2110.5C2910.5 2102.77 2916.54 2096.5 2924 2096.5 2931.46 2096.5 2937.5 2102.77 2937.5 2110.5 2937.5 2118.23 2931.46 2124.5 2924 2124.5 2916.54 2124.5 2910.5 2118.23 2910.5 2110.5Z" stroke="#42BAED" stroke-width="6.875" stroke-linecap="butt" stroke-linejoin="miter" stroke-miterlimit="8" stroke-opacity="1" fill="none" fill-rule="evenodd"/><path d="M2954.5 1981.5C2954.5 1973.77 2960.54 1967.5 2968 1967.5 2975.46 1967.5 2981.5 1973.77 2981.5 1981.5 2981.5 1989.23 2975.46 1995.5 2968 1995.5 2960.54 1995.5 2954.5 1989.23 2954.5 1981.5Z" stroke="#42BAED" stroke-width="6.875" stroke-linecap="butt" stroke-linejoin="miter" stroke-miterlimit="8" stroke-opacity="1" fill="none" fill-rule="evenodd"/><path d="M2998.5 1993C2998.5 1985.54 3004.77 1979.5 3012.5 1979.5 3020.23 1979.5 3026.5 1985.54 3026.5 1993 3026.5 2000.46 3020.23 2006.5 3012.5 2006.5 3004.77 2006.5 2998.5 2000.46 2998.5 1993Z" stroke="#42BAED" stroke-width="6.875" stroke-linecap="butt" stroke-linejoin="miter" stroke-miterlimit="8" stroke-opacity="1" fill="none" fill-rule="evenodd"/><path d="M3042.5 1895.5C3042.5 1887.77 3048.77 1881.5 3056.5 1881.5 3064.23 1881.5 3070.5 1887.77 3070.5 1895.5 3070.5 1903.23 3064.23 1909.5 3056.5 1909.5 3048.77 1909.5 3042.5 1903.23 3042.5 1895.5Z" stroke="#42BAED" stroke-width="6.875" stroke-linecap="butt" stroke-linejoin="miter" stroke-miterlimit="8" stroke-opacity="1" fill="none" fill-rule="evenodd"/><path d="M3087.5 1984C3087.5 1976.54 3093.54 1970.5 3101 1970.5 3108.46 1970.5 3114.5 1976.54 3114.5 1984 3114.5 1991.46 3108.46 1997.5 3101 1997.5 3093.54 1997.5 3087.5 1991.46 3087.5 1984Z" stroke="#42BAED" stroke-width="6.875" stroke-linecap="butt" stroke-linejoin="miter" stroke-miterlimit="8" stroke-opacity="1" fill="none" fill-rule="evenodd"/><path d="M3131.5 1934C3131.5 1926.54 3137.54 1920.5 3145 1920.5 3152.46 1920.5 3158.5 1926.54 3158.5 1934 3158.5 1941.46 3152.46 1947.5 3145 1947.5 3137.54 1947.5 3131.5 1941.46 3131.5 1934Z" stroke="#42BAED" stroke-width="6.875" stroke-linecap="butt" stroke-linejoin="miter" stroke-miterlimit="8" stroke-opacity="1" fill="none" fill-rule="evenodd"/><path d="M3175.5 1941.5C3175.5 1933.77 3181.77 1927.5 3189.5 1927.5 3197.23 1927.5 3203.5 1933.77 3203.5 1941.5 3203.5 1949.23 3197.23 1955.5 3189.5 1955.5 3181.77 1955.5 3175.5 1949.23 3175.5 1941.5Z" stroke="#42BAED" stroke-width="6.875" stroke-linecap="butt" stroke-linejoin="miter" stroke-miterlimit="8" stroke-opacity="1" fill="none" fill-rule="evenodd"/><path d="M3219.5 1918.5C3219.5 1910.77 3225.77 1904.5 3233.5 1904.5 3241.23 1904.5 3247.5 1910.77 3247.5 1918.5 3247.5 1926.23 3241.23 1932.5 3233.5 1932.5 3225.77 1932.5 3219.5 1926.23 3219.5 1918.5Z" stroke="#42BAED" stroke-width="6.875" stroke-linecap="butt" stroke-linejoin="miter" stroke-miterlimit="8" stroke-opacity="1" fill="none" fill-rule="evenodd"/><path d="M3263.5 1938.5C3263.5 1930.77 3269.77 1924.5 3277.5 1924.5 3285.23 1924.5 3291.5 1930.77 3291.5 1938.5 3291.5 1946.23 3285.23 1952.5 3277.5 1952.5 3269.77 1952.5 3263.5 1946.23 3263.5 1938.5Z" stroke="#42BAED" stroke-width="6.875" stroke-linecap="butt" stroke-linejoin="miter" stroke-miterlimit="8" stroke-opacity="1" fill="none" fill-rule="evenodd"/><path d="M3308.5 1957C3308.5 1949.54 3314.77 1943.5 3322.5 1943.5 3330.23 1943.5 3336.5 1949.54 3336.5 1957 3336.5 1964.46 3330.23 1970.5 3322.5 1970.5 3314.77 1970.5 3308.5 1964.46 3308.5 1957Z" stroke="#42BAED" stroke-width="6.875" stroke-linecap="butt" stroke-linejoin="miter" stroke-miterlimit="8" stroke-opacity="1" fill="none" fill-rule="evenodd"/><path d="M3352.5 2033.5C3352.5 2025.77 3358.77 2019.5 3366.5 2019.5 3374.23 2019.5 3380.5 2025.77 3380.5 2033.5 3380.5 2041.23 3374.23 2047.5 3366.5 2047.5 3358.77 2047.5 3352.5 2041.23 3352.5 2033.5Z" stroke="#42BAED" stroke-width="6.875" stroke-linecap="butt" stroke-linejoin="miter" stroke-miterlimit="8" stroke-opacity="1" fill="none" fill-rule="evenodd"/><path d="M3396.5 1971.5C3396.5 1963.77 3402.77 1957.5 3410.5 1957.5 3418.23 1957.5 3424.5 1963.77 3424.5 1971.5 3424.5 1979.23 3418.23 1985.5 3410.5 1985.5 3402.77 1985.5 3396.5 1979.23 3396.5 1971.5Z" stroke="#42BAED" stroke-width="6.875" stroke-linecap="butt" stroke-linejoin="miter" stroke-miterlimit="8" stroke-opacity="1" fill="none" fill-rule="evenodd"/><path d="M3440.5 1986C3440.5 1978.54 3446.77 1972.5 3454.5 1972.5 3462.23 1972.5 3468.5 1978.54 3468.5 1986 3468.5 1993.46 3462.23 1999.5 3454.5 1999.5 3446.77 1999.5 3440.5 1993.46 3440.5 1986Z" stroke="#42BAED" stroke-width="6.875" stroke-linecap="butt" stroke-linejoin="miter" stroke-miterlimit="8" stroke-opacity="1" fill="none" fill-rule="evenodd"/><path d="M3484.5 1906.5C3484.5 1898.77 3490.77 1892.5 3498.5 1892.5 3506.23 1892.5 3512.5 1898.77 3512.5 1906.5 3512.5 1914.23 3506.23 1920.5 3498.5 1920.5 3490.77 1920.5 3484.5 1914.23 3484.5 1906.5Z" stroke="#42BAED" stroke-width="6.875" stroke-linecap="butt" stroke-linejoin="miter" stroke-miterlimit="8" stroke-opacity="1" fill="none" fill-rule="evenodd"/><path d="M3529.5 1937C3529.5 1929.54 3535.77 1923.5 3543.5 1923.5 3551.23 1923.5 3557.5 1929.54 3557.5 1937 3557.5 1944.46 3551.23 1950.5 3543.5 1950.5 3535.77 1950.5 3529.5 1944.46 3529.5 1937Z" stroke="#42BAED" stroke-width="6.875" stroke-linecap="butt" stroke-linejoin="miter" stroke-miterlimit="8" stroke-opacity="1" fill="none" fill-rule="evenodd"/><path d="M3573.5 2035C3573.5 2027.54 3579.77 2021.5 3587.5 2021.5 3595.23 2021.5 3601.5 2027.54 3601.5 2035 3601.5 2042.46 3595.23 2048.5 3587.5 2048.5 3579.77 2048.5 3573.5 2042.46 3573.5 2035Z" stroke="#42BAED" stroke-width="6.875" stroke-linecap="butt" stroke-linejoin="miter" stroke-miterlimit="8" stroke-opacity="1" fill="none" fill-rule="evenodd"/><text fill="#FFFFFF" fill-opacity="1" font-family="Arial,Arial_MSFontService,sans-serif" font-style="normal" font-variant="normal" font-weight="700" font-stretch="normal" font-size="73" text-anchor="start" direction="ltr" writing-mode="lr-tb" unicode-bidi="normal" text-decoration="none" transform="matrix(-1.83697e-16 -1 1 -1.83697e-16 756.065 1889)">NMSE</text><text fill="#FFFFFF" fill-opacity="1" font-family="Arial,Arial_MSFontService,sans-serif" font-style="normal" font-variant="normal" font-weight="700" font-stretch="normal" font-size="73" text-anchor="start" direction="ltr" writing-mode="lr-tb" unicode-bidi="normal" text-decoration="none" transform="matrix(1 0 0 1 2021.15 2258)">Day</text><text fill="#000000" fill-opacity="1" font-family="Arial,Arial_MSFontService,sans-serif" font-style="normal" font-variant="normal" font-weight="400" font-stretch="normal" font-size="55" text-anchor="start" direction="ltr" writing-mode="lr-tb" unicode-bidi="normal" text-decoration="none" transform="matrix(1 0 0 1 1270.33 1404)">BGCP</text><path d="M1122.5 1383.5 1260.5 1383.5" stroke="#B34258" stroke-width="6.875" stroke-linecap="butt" stroke-linejoin="round" stroke-miterlimit="10" stroke-opacity="1" fill="none" fill-rule="evenodd"/><path d="M1177.5 1383C1177.5 1375.54 1183.77 1369.5 1191.5 1369.5 1199.23 1369.5 1205.5 1375.54 1205.5 1383 1205.5 1390.46 1199.23 1396.5 1191.5 1396.5 1183.77 1396.5 1177.5 1390.46 1177.5 1383Z" stroke="#B34258" stroke-width="6.875" stroke-linecap="butt" stroke-linejoin="miter" stroke-miterlimit="8" stroke-opacity="1" fill="none" fill-rule="evenodd"/><text fill="#000000" fill-opacity="1" font-family="Arial,Arial_MSFontService,sans-serif" font-style="normal" font-variant="normal" font-weight="400" font-stretch="normal" font-size="55" text-anchor="start" direction="ltr" writing-mode="lr-tb" unicode-bidi="normal" text-decoration="none" transform="matrix(1 0 0 1 1654.33 1405)">SVT</text><path d="M1503.5 1382.5 1641.5 1382.5" stroke="#76AC2F" stroke-width="6.875" stroke-linecap="butt" stroke-linejoin="round" stroke-miterlimit="10" stroke-opacity="1" fill="none" fill-rule="evenodd"/><path d="M1558.5 1382.5C1558.5 1374.77 1564.77 1368.5 1572.5 1368.5 1580.23 1368.5 1586.5 1374.77 1586.5 1382.5 1586.5 1390.23 1580.23 1396.5 1572.5 1396.5 1564.77 1396.5 1558.5 1390.23 1558.5 1382.5Z" stroke="#76AC2F" stroke-width="6.875" stroke-linecap="butt" stroke-linejoin="miter" stroke-miterlimit="8" stroke-opacity="1" fill="none" fill-rule="evenodd"/><text fill="#000000" fill-opacity="1" font-family="Arial,Arial_MSFontService,sans-serif" font-style="normal" font-variant="normal" font-weight="700" font-stretch="normal" font-size="55" text-anchor="start" direction="ltr" writing-mode="lr-tb" unicode-bidi="normal" text-decoration="none" transform="matrix(1 0 0 1 1963.56 1403)">GLImpute</text><text fill="#000000" fill-opacity="1" font-family="Arial,Arial_MSFontService,sans-serif" font-style="normal" font-variant="normal" font-weight="700" font-stretch="normal" font-size="55" text-anchor="start" direction="ltr" writing-mode="lr-tb" unicode-bidi="normal" text-decoration="none" transform="matrix(1 0 0 1 2220.8 1403)">(Ours)</text><path d="M1816.5 1381.5 1954.5 1381.5" stroke="#42BAED" stroke-width="6.875" stroke-linecap="butt" stroke-linejoin="round" stroke-miterlimit="10" stroke-opacity="1" fill="none" fill-rule="evenodd"/><path d="M1871.5 1381C1871.5 1373.54 1877.77 1367.5 1885.5 1367.5 1893.23 1367.5 1899.5 1373.54 1899.5 1381 1899.5 1388.46 1893.23 1394.5 1885.5 1394.5 1877.77 1394.5 1871.5 1388.46 1871.5 1381Z" stroke="#42BAED" stroke-width="6.875" stroke-linecap="butt" stroke-linejoin="miter" stroke-miterlimit="8" stroke-opacity="1" fill="none" fill-rule="evenodd"/><rect x="1098.5" y="1330.5" width="1333" height="109" stroke="#000000" stroke-width="3.4375" stroke-linecap="butt" stroke-linejoin="round" stroke-miterlimit="10" stroke-opacity="1" fill="none"/><path d="M664 1306.89C664 1268.84 694.843 1238 732.89 1238L3609.11 1238C3647.16 1238 3678 1268.84 3678 1306.89L3678 2251.11C3678 2289.16 3647.16 2320 3609.11 2320L732.89 2320C694.843 2320 664 2289.16 664 2251.11Z" stroke="#FFFFFF" stroke-width="5.72917" stroke-linecap="butt" stroke-linejoin="round" stroke-miterlimit="10" stroke-opacity="1" fill="none" fill-rule="evenodd"/></g></g></svg>